<?xml version="1.0" encoding="utf-8" standalone="no"?>
<!DOCTYPE svg PUBLIC "-//W3C//DTD SVG 1.1//EN"
  "http://www.w3.org/Graphics/SVG/1.1/DTD/svg11.dtd">
<!-- Created with matplotlib (https://matplotlib.org/) -->
<svg height="355.561594pt" version="1.1" viewBox="0 0 467.780906 355.561594" width="467.780906pt" xmlns="http://www.w3.org/2000/svg" xmlns:xlink="http://www.w3.org/1999/xlink">
 <defs>
  <style type="text/css">
*{stroke-linecap:butt;stroke-linejoin:round;}
  </style>
 </defs>
 <g id="figure_1">
  <g id="patch_1">
   <path d="M 0 355.561594 
L 467.780906 355.561594 
L 467.780906 0 
L 0 0 
z
" style="fill:none;"/>
  </g>
  <g id="axes_1">
   <g id="patch_2">
    <path d="M 57.980906 291 
L 448.580906 291 
L 448.580906 19.2 
L 57.980906 19.2 
z
" style="fill:none;"/>
   </g>
   <g id="matplotlib.axis_1">
    <g id="xtick_1">
     <g id="line2d_1">
      <defs>
       <path d="M 0 0 
L 0 12 
" id="m0e3a80a8f9" style="stroke:#262626;stroke-width:2.5;"/>
      </defs>
      <g>
       <use style="fill:#262626;stroke:#262626;stroke-width:2.5;" x="99.65292" xlink:href="#m0e3a80a8f9" y="291"/>
      </g>
     </g>
     <g id="text_1">
      <!-- −0.8 -->
      <defs>
       <path d="M 52.828125 31.203125 
L 5.5625 31.203125 
L 5.5625 39.40625 
L 52.828125 39.40625 
z
" id="ArialMT-8722"/>
       <path d="M 4.15625 35.296875 
Q 4.15625 48 6.765625 55.734375 
Q 9.375 63.484375 14.515625 67.671875 
Q 19.671875 71.875 27.484375 71.875 
Q 33.25 71.875 37.59375 69.546875 
Q 41.9375 67.234375 44.765625 62.859375 
Q 47.609375 58.5 49.21875 52.21875 
Q 50.828125 45.953125 50.828125 35.296875 
Q 50.828125 22.703125 48.234375 14.96875 
Q 45.65625 7.234375 40.5 3 
Q 35.359375 -1.21875 27.484375 -1.21875 
Q 17.140625 -1.21875 11.234375 6.203125 
Q 4.15625 15.140625 4.15625 35.296875 
z
M 13.1875 35.296875 
Q 13.1875 17.671875 17.3125 11.828125 
Q 21.4375 6 27.484375 6 
Q 33.546875 6 37.671875 11.859375 
Q 41.796875 17.71875 41.796875 35.296875 
Q 41.796875 52.984375 37.671875 58.78125 
Q 33.546875 64.59375 27.390625 64.59375 
Q 21.34375 64.59375 17.71875 59.46875 
Q 13.1875 52.9375 13.1875 35.296875 
z
" id="ArialMT-48"/>
       <path d="M 9.078125 0 
L 9.078125 10.015625 
L 19.09375 10.015625 
L 19.09375 0 
z
" id="ArialMT-46"/>
       <path d="M 17.671875 38.8125 
Q 12.203125 40.828125 9.5625 44.53125 
Q 6.9375 48.25 6.9375 53.421875 
Q 6.9375 61.234375 12.546875 66.546875 
Q 18.171875 71.875 27.484375 71.875 
Q 36.859375 71.875 42.578125 66.421875 
Q 48.296875 60.984375 48.296875 53.171875 
Q 48.296875 48.1875 45.671875 44.5 
Q 43.0625 40.828125 37.75 38.8125 
Q 44.34375 36.671875 47.78125 31.875 
Q 51.21875 27.09375 51.21875 20.453125 
Q 51.21875 11.28125 44.71875 5.03125 
Q 38.234375 -1.21875 27.640625 -1.21875 
Q 17.046875 -1.21875 10.546875 5.046875 
Q 4.046875 11.328125 4.046875 20.703125 
Q 4.046875 27.6875 7.59375 32.390625 
Q 11.140625 37.109375 17.671875 38.8125 
z
M 15.921875 53.71875 
Q 15.921875 48.640625 19.1875 45.40625 
Q 22.46875 42.1875 27.6875 42.1875 
Q 32.765625 42.1875 36.015625 45.375 
Q 39.265625 48.578125 39.265625 53.21875 
Q 39.265625 58.0625 35.90625 61.359375 
Q 32.5625 64.65625 27.59375 64.65625 
Q 22.5625 64.65625 19.234375 61.421875 
Q 15.921875 58.203125 15.921875 53.71875 
z
M 13.09375 20.65625 
Q 13.09375 16.890625 14.875 13.375 
Q 16.65625 9.859375 20.171875 7.921875 
Q 23.6875 6 27.734375 6 
Q 34.03125 6 38.125 10.046875 
Q 42.234375 14.109375 42.234375 20.359375 
Q 42.234375 26.703125 38.015625 30.859375 
Q 33.796875 35.015625 27.4375 35.015625 
Q 21.234375 35.015625 17.15625 30.90625 
Q 13.09375 26.8125 13.09375 20.65625 
z
" id="ArialMT-56"/>
      </defs>
      <g style="fill:#262626;" transform="translate(80.109701 320.672469)scale(0.198 -0.198)">
       <use xlink:href="#ArialMT-8722"/>
       <use x="58.398438" xlink:href="#ArialMT-48"/>
       <use x="114.013672" xlink:href="#ArialMT-46"/>
       <use x="141.796875" xlink:href="#ArialMT-56"/>
      </g>
     </g>
    </g>
    <g id="xtick_2">
     <g id="line2d_2">
      <g>
       <use style="fill:#262626;stroke:#262626;stroke-width:2.5;" x="139.898705" xlink:href="#m0e3a80a8f9" y="291"/>
      </g>
     </g>
     <g id="text_2">
      <!-- −0.6 -->
      <defs>
       <path d="M 49.75 54.046875 
L 41.015625 53.375 
Q 39.84375 58.546875 37.703125 60.890625 
Q 34.125 64.65625 28.90625 64.65625 
Q 24.703125 64.65625 21.53125 62.3125 
Q 17.390625 59.28125 14.984375 53.46875 
Q 12.59375 47.65625 12.5 36.921875 
Q 15.671875 41.75 20.265625 44.09375 
Q 24.859375 46.4375 29.890625 46.4375 
Q 38.671875 46.4375 44.84375 39.96875 
Q 51.03125 33.5 51.03125 23.25 
Q 51.03125 16.5 48.125 10.71875 
Q 45.21875 4.9375 40.140625 1.859375 
Q 35.0625 -1.21875 28.609375 -1.21875 
Q 17.625 -1.21875 10.6875 6.859375 
Q 3.765625 14.9375 3.765625 33.5 
Q 3.765625 54.25 11.421875 63.671875 
Q 18.109375 71.875 29.4375 71.875 
Q 37.890625 71.875 43.28125 67.140625 
Q 48.6875 62.40625 49.75 54.046875 
z
M 13.875 23.1875 
Q 13.875 18.65625 15.796875 14.5 
Q 17.71875 10.359375 21.1875 8.171875 
Q 24.65625 6 28.46875 6 
Q 34.03125 6 38.03125 10.484375 
Q 42.046875 14.984375 42.046875 22.703125 
Q 42.046875 30.125 38.078125 34.390625 
Q 34.125 38.671875 28.125 38.671875 
Q 22.171875 38.671875 18.015625 34.390625 
Q 13.875 30.125 13.875 23.1875 
z
" id="ArialMT-54"/>
      </defs>
      <g style="fill:#262626;" transform="translate(120.355486 320.672469)scale(0.198 -0.198)">
       <use xlink:href="#ArialMT-8722"/>
       <use x="58.398438" xlink:href="#ArialMT-48"/>
       <use x="114.013672" xlink:href="#ArialMT-46"/>
       <use x="141.796875" xlink:href="#ArialMT-54"/>
      </g>
     </g>
    </g>
    <g id="xtick_3">
     <g id="line2d_3">
      <g>
       <use style="fill:#262626;stroke:#262626;stroke-width:2.5;" x="180.144491" xlink:href="#m0e3a80a8f9" y="291"/>
      </g>
     </g>
     <g id="text_3">
      <!-- −0.4 -->
      <defs>
       <path d="M 32.328125 0 
L 32.328125 17.140625 
L 1.265625 17.140625 
L 1.265625 25.203125 
L 33.9375 71.578125 
L 41.109375 71.578125 
L 41.109375 25.203125 
L 50.78125 25.203125 
L 50.78125 17.140625 
L 41.109375 17.140625 
L 41.109375 0 
z
M 32.328125 25.203125 
L 32.328125 57.46875 
L 9.90625 25.203125 
z
" id="ArialMT-52"/>
      </defs>
      <g style="fill:#262626;" transform="translate(160.601272 320.672469)scale(0.198 -0.198)">
       <use xlink:href="#ArialMT-8722"/>
       <use x="58.398438" xlink:href="#ArialMT-48"/>
       <use x="114.013672" xlink:href="#ArialMT-46"/>
       <use x="141.796875" xlink:href="#ArialMT-52"/>
      </g>
     </g>
    </g>
    <g id="xtick_4">
     <g id="line2d_4">
      <g>
       <use style="fill:#262626;stroke:#262626;stroke-width:2.5;" x="220.390276" xlink:href="#m0e3a80a8f9" y="291"/>
      </g>
     </g>
     <g id="text_4">
      <!-- −0.2 -->
      <defs>
       <path d="M 50.34375 8.453125 
L 50.34375 0 
L 3.03125 0 
Q 2.9375 3.171875 4.046875 6.109375 
Q 5.859375 10.9375 9.828125 15.625 
Q 13.8125 20.3125 21.34375 26.46875 
Q 33.015625 36.03125 37.109375 41.625 
Q 41.21875 47.21875 41.21875 52.203125 
Q 41.21875 57.421875 37.46875 61 
Q 33.734375 64.59375 27.734375 64.59375 
Q 21.390625 64.59375 17.578125 60.78125 
Q 13.765625 56.984375 13.71875 50.25 
L 4.6875 51.171875 
Q 5.609375 61.28125 11.65625 66.578125 
Q 17.71875 71.875 27.9375 71.875 
Q 38.234375 71.875 44.234375 66.15625 
Q 50.25 60.453125 50.25 52 
Q 50.25 47.703125 48.484375 43.546875 
Q 46.734375 39.40625 42.65625 34.8125 
Q 38.578125 30.21875 29.109375 22.21875 
Q 21.1875 15.578125 18.9375 13.203125 
Q 16.703125 10.84375 15.234375 8.453125 
z
" id="ArialMT-50"/>
      </defs>
      <g style="fill:#262626;" transform="translate(200.847057 320.672469)scale(0.198 -0.198)">
       <use xlink:href="#ArialMT-8722"/>
       <use x="58.398438" xlink:href="#ArialMT-48"/>
       <use x="114.013672" xlink:href="#ArialMT-46"/>
       <use x="141.796875" xlink:href="#ArialMT-50"/>
      </g>
     </g>
    </g>
    <g id="xtick_5">
     <g id="line2d_5">
      <g>
       <use style="fill:#262626;stroke:#262626;stroke-width:2.5;" x="260.636061" xlink:href="#m0e3a80a8f9" y="291"/>
      </g>
     </g>
     <g id="text_5">
      <!-- 0.0 -->
      <g style="fill:#262626;" transform="translate(246.875061 320.672469)scale(0.198 -0.198)">
       <use xlink:href="#ArialMT-48"/>
       <use x="55.615234" xlink:href="#ArialMT-46"/>
       <use x="83.398438" xlink:href="#ArialMT-48"/>
      </g>
     </g>
    </g>
    <g id="xtick_6">
     <g id="line2d_6">
      <g>
       <use style="fill:#262626;stroke:#262626;stroke-width:2.5;" x="300.881847" xlink:href="#m0e3a80a8f9" y="291"/>
      </g>
     </g>
     <g id="text_6">
      <!-- 0.2 -->
      <g style="fill:#262626;" transform="translate(287.120847 320.672469)scale(0.198 -0.198)">
       <use xlink:href="#ArialMT-48"/>
       <use x="55.615234" xlink:href="#ArialMT-46"/>
       <use x="83.398438" xlink:href="#ArialMT-50"/>
      </g>
     </g>
    </g>
    <g id="xtick_7">
     <g id="line2d_7">
      <g>
       <use style="fill:#262626;stroke:#262626;stroke-width:2.5;" x="341.127632" xlink:href="#m0e3a80a8f9" y="291"/>
      </g>
     </g>
     <g id="text_7">
      <!-- 0.4 -->
      <g style="fill:#262626;" transform="translate(327.366632 320.672469)scale(0.198 -0.198)">
       <use xlink:href="#ArialMT-48"/>
       <use x="55.615234" xlink:href="#ArialMT-46"/>
       <use x="83.398438" xlink:href="#ArialMT-52"/>
      </g>
     </g>
    </g>
    <g id="xtick_8">
     <g id="line2d_8">
      <g>
       <use style="fill:#262626;stroke:#262626;stroke-width:2.5;" x="381.373418" xlink:href="#m0e3a80a8f9" y="291"/>
      </g>
     </g>
     <g id="text_8">
      <!-- 0.6 -->
      <g style="fill:#262626;" transform="translate(367.612418 320.672469)scale(0.198 -0.198)">
       <use xlink:href="#ArialMT-48"/>
       <use x="55.615234" xlink:href="#ArialMT-46"/>
       <use x="83.398438" xlink:href="#ArialMT-54"/>
      </g>
     </g>
    </g>
    <g id="xtick_9">
     <g id="line2d_9">
      <g>
       <use style="fill:#262626;stroke:#262626;stroke-width:2.5;" x="421.619203" xlink:href="#m0e3a80a8f9" y="291"/>
      </g>
     </g>
     <g id="text_9">
      <!-- 0.8 -->
      <g style="fill:#262626;" transform="translate(407.858203 320.672469)scale(0.198 -0.198)">
       <use xlink:href="#ArialMT-48"/>
       <use x="55.615234" xlink:href="#ArialMT-46"/>
       <use x="83.398438" xlink:href="#ArialMT-56"/>
      </g>
     </g>
    </g>
    <g id="text_10">
     <!-- Pearson correlation coefficient -->
     <defs>
      <path d="M 7.71875 0 
L 7.71875 71.578125 
L 34.71875 71.578125 
Q 41.84375 71.578125 45.609375 70.90625 
Q 50.875 70.015625 54.4375 67.546875 
Q 58.015625 65.09375 60.1875 60.640625 
Q 62.359375 56.203125 62.359375 50.875 
Q 62.359375 41.75 56.546875 35.421875 
Q 50.734375 29.109375 35.546875 29.109375 
L 17.1875 29.109375 
L 17.1875 0 
z
M 17.1875 37.546875 
L 35.6875 37.546875 
Q 44.875 37.546875 48.734375 40.96875 
Q 52.59375 44.390625 52.59375 50.59375 
Q 52.59375 55.078125 50.3125 58.265625 
Q 48.046875 61.46875 44.34375 62.5 
Q 41.9375 63.140625 35.5 63.140625 
L 17.1875 63.140625 
z
" id="ArialMT-80"/>
      <path d="M 42.09375 16.703125 
L 51.171875 15.578125 
Q 49.03125 7.625 43.21875 3.21875 
Q 37.40625 -1.171875 28.375 -1.171875 
Q 17 -1.171875 10.328125 5.828125 
Q 3.65625 12.84375 3.65625 25.484375 
Q 3.65625 38.578125 10.390625 45.796875 
Q 17.140625 53.03125 27.875 53.03125 
Q 38.28125 53.03125 44.875 45.953125 
Q 51.46875 38.875 51.46875 26.03125 
Q 51.46875 25.25 51.421875 23.6875 
L 12.75 23.6875 
Q 13.234375 15.140625 17.578125 10.59375 
Q 21.921875 6.0625 28.421875 6.0625 
Q 33.25 6.0625 36.671875 8.59375 
Q 40.09375 11.140625 42.09375 16.703125 
z
M 13.234375 30.90625 
L 42.1875 30.90625 
Q 41.609375 37.453125 38.875 40.71875 
Q 34.671875 45.796875 27.984375 45.796875 
Q 21.921875 45.796875 17.796875 41.75 
Q 13.671875 37.703125 13.234375 30.90625 
z
" id="ArialMT-101"/>
      <path d="M 40.4375 6.390625 
Q 35.546875 2.25 31.03125 0.53125 
Q 26.515625 -1.171875 21.34375 -1.171875 
Q 12.796875 -1.171875 8.203125 3 
Q 3.609375 7.171875 3.609375 13.671875 
Q 3.609375 17.484375 5.34375 20.625 
Q 7.078125 23.78125 9.890625 25.6875 
Q 12.703125 27.59375 16.21875 28.5625 
Q 18.796875 29.25 24.03125 29.890625 
Q 34.671875 31.15625 39.703125 32.90625 
Q 39.75 34.71875 39.75 35.203125 
Q 39.75 40.578125 37.25 42.78125 
Q 33.890625 45.75 27.25 45.75 
Q 21.046875 45.75 18.09375 43.578125 
Q 15.140625 41.40625 13.71875 35.890625 
L 5.125 37.0625 
Q 6.296875 42.578125 8.984375 45.96875 
Q 11.671875 49.359375 16.75 51.1875 
Q 21.828125 53.03125 28.515625 53.03125 
Q 35.15625 53.03125 39.296875 51.46875 
Q 43.453125 49.90625 45.40625 47.53125 
Q 47.359375 45.171875 48.140625 41.546875 
Q 48.578125 39.3125 48.578125 33.453125 
L 48.578125 21.734375 
Q 48.578125 9.46875 49.140625 6.21875 
Q 49.703125 2.984375 51.375 0 
L 42.1875 0 
Q 40.828125 2.734375 40.4375 6.390625 
z
M 39.703125 26.03125 
Q 34.90625 24.078125 25.34375 22.703125 
Q 19.921875 21.921875 17.671875 20.9375 
Q 15.4375 19.96875 14.203125 18.09375 
Q 12.984375 16.21875 12.984375 13.921875 
Q 12.984375 10.40625 15.640625 8.0625 
Q 18.3125 5.71875 23.4375 5.71875 
Q 28.515625 5.71875 32.46875 7.9375 
Q 36.421875 10.15625 38.28125 14.015625 
Q 39.703125 17 39.703125 22.796875 
z
" id="ArialMT-97"/>
      <path d="M 6.5 0 
L 6.5 51.859375 
L 14.40625 51.859375 
L 14.40625 44 
Q 17.4375 49.515625 20 51.265625 
Q 22.5625 53.03125 25.640625 53.03125 
Q 30.078125 53.03125 34.671875 50.203125 
L 31.640625 42.046875 
Q 28.421875 43.953125 25.203125 43.953125 
Q 22.3125 43.953125 20.015625 42.21875 
Q 17.71875 40.484375 16.75 37.40625 
Q 15.28125 32.71875 15.28125 27.15625 
L 15.28125 0 
z
" id="ArialMT-114"/>
      <path d="M 3.078125 15.484375 
L 11.765625 16.84375 
Q 12.5 11.625 15.84375 8.84375 
Q 19.1875 6.0625 25.203125 6.0625 
Q 31.25 6.0625 34.171875 8.515625 
Q 37.109375 10.984375 37.109375 14.3125 
Q 37.109375 17.28125 34.515625 19 
Q 32.71875 20.171875 25.53125 21.96875 
Q 15.875 24.421875 12.140625 26.203125 
Q 8.40625 27.984375 6.46875 31.125 
Q 4.546875 34.28125 4.546875 38.09375 
Q 4.546875 41.546875 6.125 44.5 
Q 7.71875 47.46875 10.453125 49.421875 
Q 12.5 50.921875 16.03125 51.96875 
Q 19.578125 53.03125 23.640625 53.03125 
Q 29.734375 53.03125 34.34375 51.265625 
Q 38.96875 49.515625 41.15625 46.5 
Q 43.359375 43.5 44.1875 38.484375 
L 35.59375 37.3125 
Q 35.015625 41.3125 32.203125 43.546875 
Q 29.390625 45.796875 24.265625 45.796875 
Q 18.21875 45.796875 15.625 43.796875 
Q 13.03125 41.796875 13.03125 39.109375 
Q 13.03125 37.40625 14.109375 36.03125 
Q 15.1875 34.625 17.484375 33.6875 
Q 18.796875 33.203125 25.25 31.453125 
Q 34.578125 28.953125 38.25 27.359375 
Q 41.9375 25.78125 44.03125 22.75 
Q 46.140625 19.734375 46.140625 15.234375 
Q 46.140625 10.84375 43.578125 6.953125 
Q 41.015625 3.078125 36.171875 0.953125 
Q 31.34375 -1.171875 25.25 -1.171875 
Q 15.140625 -1.171875 9.84375 3.03125 
Q 4.546875 7.234375 3.078125 15.484375 
z
" id="ArialMT-115"/>
      <path d="M 3.328125 25.921875 
Q 3.328125 40.328125 11.328125 47.265625 
Q 18.015625 53.03125 27.640625 53.03125 
Q 38.328125 53.03125 45.109375 46.015625 
Q 51.90625 39.015625 51.90625 26.65625 
Q 51.90625 16.65625 48.90625 10.90625 
Q 45.90625 5.171875 40.15625 2 
Q 34.421875 -1.171875 27.640625 -1.171875 
Q 16.75 -1.171875 10.03125 5.8125 
Q 3.328125 12.796875 3.328125 25.921875 
z
M 12.359375 25.921875 
Q 12.359375 15.96875 16.703125 11.015625 
Q 21.046875 6.0625 27.640625 6.0625 
Q 34.1875 6.0625 38.53125 11.03125 
Q 42.875 16.015625 42.875 26.21875 
Q 42.875 35.84375 38.5 40.796875 
Q 34.125 45.75 27.640625 45.75 
Q 21.046875 45.75 16.703125 40.8125 
Q 12.359375 35.890625 12.359375 25.921875 
z
" id="ArialMT-111"/>
      <path d="M 6.59375 0 
L 6.59375 51.859375 
L 14.5 51.859375 
L 14.5 44.484375 
Q 20.21875 53.03125 31 53.03125 
Q 35.6875 53.03125 39.625 51.34375 
Q 43.5625 49.65625 45.515625 46.921875 
Q 47.46875 44.1875 48.25 40.4375 
Q 48.734375 37.984375 48.734375 31.890625 
L 48.734375 0 
L 39.9375 0 
L 39.9375 31.546875 
Q 39.9375 36.921875 38.90625 39.578125 
Q 37.890625 42.234375 35.28125 43.8125 
Q 32.671875 45.40625 29.15625 45.40625 
Q 23.53125 45.40625 19.453125 41.84375 
Q 15.375 38.28125 15.375 28.328125 
L 15.375 0 
z
" id="ArialMT-110"/>
      <path id="ArialMT-32"/>
      <path d="M 40.4375 19 
L 49.078125 17.875 
Q 47.65625 8.9375 41.8125 3.875 
Q 35.984375 -1.171875 27.484375 -1.171875 
Q 16.84375 -1.171875 10.375 5.78125 
Q 3.90625 12.75 3.90625 25.734375 
Q 3.90625 34.125 6.6875 40.421875 
Q 9.46875 46.734375 15.15625 49.875 
Q 20.84375 53.03125 27.546875 53.03125 
Q 35.984375 53.03125 41.359375 48.75 
Q 46.734375 44.484375 48.25 36.625 
L 39.703125 35.296875 
Q 38.484375 40.53125 35.375 43.15625 
Q 32.28125 45.796875 27.875 45.796875 
Q 21.234375 45.796875 17.078125 41.03125 
Q 12.9375 36.28125 12.9375 25.984375 
Q 12.9375 15.53125 16.9375 10.796875 
Q 20.953125 6.0625 27.390625 6.0625 
Q 32.5625 6.0625 36.03125 9.234375 
Q 39.5 12.40625 40.4375 19 
z
" id="ArialMT-99"/>
      <path d="M 6.390625 0 
L 6.390625 71.578125 
L 15.1875 71.578125 
L 15.1875 0 
z
" id="ArialMT-108"/>
      <path d="M 25.78125 7.859375 
L 27.046875 0.09375 
Q 23.34375 -0.6875 20.40625 -0.6875 
Q 15.625 -0.6875 12.984375 0.828125 
Q 10.359375 2.34375 9.28125 4.8125 
Q 8.203125 7.28125 8.203125 15.1875 
L 8.203125 45.015625 
L 1.765625 45.015625 
L 1.765625 51.859375 
L 8.203125 51.859375 
L 8.203125 64.703125 
L 16.9375 69.96875 
L 16.9375 51.859375 
L 25.78125 51.859375 
L 25.78125 45.015625 
L 16.9375 45.015625 
L 16.9375 14.703125 
Q 16.9375 10.9375 17.40625 9.859375 
Q 17.875 8.796875 18.921875 8.15625 
Q 19.96875 7.515625 21.921875 7.515625 
Q 23.390625 7.515625 25.78125 7.859375 
z
" id="ArialMT-116"/>
      <path d="M 6.640625 61.46875 
L 6.640625 71.578125 
L 15.4375 71.578125 
L 15.4375 61.46875 
z
M 6.640625 0 
L 6.640625 51.859375 
L 15.4375 51.859375 
L 15.4375 0 
z
" id="ArialMT-105"/>
      <path d="M 8.6875 0 
L 8.6875 45.015625 
L 0.921875 45.015625 
L 0.921875 51.859375 
L 8.6875 51.859375 
L 8.6875 57.375 
Q 8.6875 62.59375 9.625 65.140625 
Q 10.890625 68.5625 14.078125 70.671875 
Q 17.28125 72.796875 23.046875 72.796875 
Q 26.765625 72.796875 31.25 71.921875 
L 29.9375 64.265625 
Q 27.203125 64.75 24.75 64.75 
Q 20.75 64.75 19.09375 63.03125 
Q 17.4375 61.328125 17.4375 56.640625 
L 17.4375 51.859375 
L 27.546875 51.859375 
L 27.546875 45.015625 
L 17.4375 45.015625 
L 17.4375 0 
z
" id="ArialMT-102"/>
     </defs>
     <g style="fill:#262626;" transform="translate(108.014156 344.068594)scale(0.216 -0.216)">
      <use xlink:href="#ArialMT-80"/>
      <use x="66.699219" xlink:href="#ArialMT-101"/>
      <use x="122.314453" xlink:href="#ArialMT-97"/>
      <use x="177.929688" xlink:href="#ArialMT-114"/>
      <use x="211.230469" xlink:href="#ArialMT-115"/>
      <use x="261.230469" xlink:href="#ArialMT-111"/>
      <use x="316.845703" xlink:href="#ArialMT-110"/>
      <use x="372.460938" xlink:href="#ArialMT-32"/>
      <use x="400.244141" xlink:href="#ArialMT-99"/>
      <use x="450.244141" xlink:href="#ArialMT-111"/>
      <use x="505.859375" xlink:href="#ArialMT-114"/>
      <use x="539.160156" xlink:href="#ArialMT-114"/>
      <use x="572.460938" xlink:href="#ArialMT-101"/>
      <use x="628.076172" xlink:href="#ArialMT-108"/>
      <use x="650.292969" xlink:href="#ArialMT-97"/>
      <use x="705.908203" xlink:href="#ArialMT-116"/>
      <use x="733.691406" xlink:href="#ArialMT-105"/>
      <use x="755.908203" xlink:href="#ArialMT-111"/>
      <use x="811.523438" xlink:href="#ArialMT-110"/>
      <use x="867.138672" xlink:href="#ArialMT-32"/>
      <use x="894.921875" xlink:href="#ArialMT-99"/>
      <use x="944.921875" xlink:href="#ArialMT-111"/>
      <use x="1000.537109" xlink:href="#ArialMT-101"/>
      <use x="1056.152344" xlink:href="#ArialMT-102"/>
      <use x="1083.919922" xlink:href="#ArialMT-102"/>
      <use x="1111.703125" xlink:href="#ArialMT-105"/>
      <use x="1133.919922" xlink:href="#ArialMT-99"/>
      <use x="1183.919922" xlink:href="#ArialMT-105"/>
      <use x="1206.136719" xlink:href="#ArialMT-101"/>
      <use x="1261.751953" xlink:href="#ArialMT-110"/>
      <use x="1317.367188" xlink:href="#ArialMT-116"/>
     </g>
    </g>
   </g>
   <g id="matplotlib.axis_2">
    <g id="ytick_1">
     <g id="line2d_10">
      <defs>
       <path d="M 0 0 
L -12 0 
" id="mbeea6ab4d5" style="stroke:#262626;stroke-width:2.5;"/>
      </defs>
      <g>
       <use style="fill:#262626;stroke:#262626;stroke-width:2.5;" x="57.980906" xlink:href="#mbeea6ab4d5" y="291"/>
      </g>
     </g>
     <g id="text_11">
      <!-- 0 -->
      <g style="fill:#262626;" transform="translate(31.47025 298.086234)scale(0.198 -0.198)">
       <use xlink:href="#ArialMT-48"/>
      </g>
     </g>
    </g>
    <g id="ytick_2">
     <g id="line2d_11">
      <g>
       <use style="fill:#262626;stroke:#262626;stroke-width:2.5;" x="57.980906" xlink:href="#mbeea6ab4d5" y="207.044861"/>
      </g>
     </g>
     <g id="text_12">
      <!-- 1 -->
      <defs>
       <path d="M 37.25 0 
L 28.46875 0 
L 28.46875 56 
Q 25.296875 52.984375 20.140625 49.953125 
Q 14.984375 46.921875 10.890625 45.40625 
L 10.890625 53.90625 
Q 18.265625 57.375 23.78125 62.296875 
Q 29.296875 67.234375 31.59375 71.875 
L 37.25 71.875 
z
" id="ArialMT-49"/>
      </defs>
      <g style="fill:#262626;" transform="translate(31.47025 214.131095)scale(0.198 -0.198)">
       <use xlink:href="#ArialMT-49"/>
      </g>
     </g>
    </g>
    <g id="ytick_3">
     <g id="line2d_12">
      <g>
       <use style="fill:#262626;stroke:#262626;stroke-width:2.5;" x="57.980906" xlink:href="#mbeea6ab4d5" y="123.089721"/>
      </g>
     </g>
     <g id="text_13">
      <!-- 2 -->
      <g style="fill:#262626;" transform="translate(31.47025 130.175955)scale(0.198 -0.198)">
       <use xlink:href="#ArialMT-50"/>
      </g>
     </g>
    </g>
    <g id="ytick_4">
     <g id="line2d_13">
      <g>
       <use style="fill:#262626;stroke:#262626;stroke-width:2.5;" x="57.980906" xlink:href="#mbeea6ab4d5" y="39.134582"/>
      </g>
     </g>
     <g id="text_14">
      <!-- 3 -->
      <defs>
       <path d="M 4.203125 18.890625 
L 12.984375 20.0625 
Q 14.5 12.59375 18.140625 9.296875 
Q 21.78125 6 27 6 
Q 33.203125 6 37.46875 10.296875 
Q 41.75 14.59375 41.75 20.953125 
Q 41.75 27 37.796875 30.921875 
Q 33.84375 34.859375 27.734375 34.859375 
Q 25.25 34.859375 21.53125 33.890625 
L 22.515625 41.609375 
Q 23.390625 41.5 23.921875 41.5 
Q 29.546875 41.5 34.03125 44.421875 
Q 38.53125 47.359375 38.53125 53.46875 
Q 38.53125 58.296875 35.25 61.46875 
Q 31.984375 64.65625 26.8125 64.65625 
Q 21.6875 64.65625 18.265625 61.421875 
Q 14.84375 58.203125 13.875 51.765625 
L 5.078125 53.328125 
Q 6.6875 62.15625 12.390625 67.015625 
Q 18.109375 71.875 26.609375 71.875 
Q 32.46875 71.875 37.390625 69.359375 
Q 42.328125 66.84375 44.9375 62.5 
Q 47.5625 58.15625 47.5625 53.265625 
Q 47.5625 48.640625 45.0625 44.828125 
Q 42.578125 41.015625 37.703125 38.765625 
Q 44.046875 37.3125 47.5625 32.6875 
Q 51.078125 28.078125 51.078125 21.140625 
Q 51.078125 11.765625 44.234375 5.25 
Q 37.40625 -1.265625 26.953125 -1.265625 
Q 17.53125 -1.265625 11.296875 4.34375 
Q 5.078125 9.96875 4.203125 18.890625 
z
" id="ArialMT-51"/>
      </defs>
      <g style="fill:#262626;" transform="translate(31.47025 46.220816)scale(0.198 -0.198)">
       <use xlink:href="#ArialMT-51"/>
      </g>
     </g>
    </g>
    <g id="text_15">
     <!-- Gene density -->
     <defs>
      <path d="M 41.21875 28.078125 
L 41.21875 36.46875 
L 71.53125 36.53125 
L 71.53125 9.96875 
Q 64.546875 4.390625 57.125 1.578125 
Q 49.703125 -1.21875 41.890625 -1.21875 
Q 31.34375 -1.21875 22.71875 3.296875 
Q 14.109375 7.8125 9.71875 16.359375 
Q 5.328125 24.90625 5.328125 35.453125 
Q 5.328125 45.90625 9.6875 54.953125 
Q 14.0625 64.015625 22.265625 68.40625 
Q 30.46875 72.796875 41.15625 72.796875 
Q 48.921875 72.796875 55.1875 70.28125 
Q 61.46875 67.78125 65.03125 63.28125 
Q 68.609375 58.796875 70.453125 51.5625 
L 61.921875 49.21875 
Q 60.296875 54.6875 57.90625 57.8125 
Q 55.515625 60.9375 51.0625 62.8125 
Q 46.625 64.703125 41.21875 64.703125 
Q 34.71875 64.703125 29.984375 62.71875 
Q 25.25 60.75 22.34375 57.515625 
Q 19.4375 54.296875 17.828125 50.4375 
Q 15.09375 43.796875 15.09375 36.03125 
Q 15.09375 26.46875 18.390625 20.015625 
Q 21.6875 13.578125 27.984375 10.453125 
Q 34.28125 7.328125 41.359375 7.328125 
Q 47.515625 7.328125 53.375 9.6875 
Q 59.234375 12.0625 62.25 14.75 
L 62.25 28.078125 
z
" id="ArialMT-71"/>
      <path d="M 40.234375 0 
L 40.234375 6.546875 
Q 35.296875 -1.171875 25.734375 -1.171875 
Q 19.53125 -1.171875 14.328125 2.25 
Q 9.125 5.671875 6.265625 11.796875 
Q 3.421875 17.921875 3.421875 25.875 
Q 3.421875 33.640625 6 39.96875 
Q 8.59375 46.296875 13.765625 49.65625 
Q 18.953125 53.03125 25.34375 53.03125 
Q 30.03125 53.03125 33.6875 51.046875 
Q 37.359375 49.078125 39.65625 45.90625 
L 39.65625 71.578125 
L 48.390625 71.578125 
L 48.390625 0 
z
M 12.453125 25.875 
Q 12.453125 15.921875 16.640625 10.984375 
Q 20.84375 6.0625 26.5625 6.0625 
Q 32.328125 6.0625 36.34375 10.765625 
Q 40.375 15.484375 40.375 25.140625 
Q 40.375 35.796875 36.265625 40.765625 
Q 32.171875 45.75 26.171875 45.75 
Q 20.3125 45.75 16.375 40.96875 
Q 12.453125 36.1875 12.453125 25.875 
z
" id="ArialMT-100"/>
      <path d="M 6.203125 -19.96875 
L 5.21875 -11.71875 
Q 8.109375 -12.5 10.25 -12.5 
Q 13.1875 -12.5 14.9375 -11.515625 
Q 16.703125 -10.546875 17.828125 -8.796875 
Q 18.65625 -7.46875 20.515625 -2.25 
Q 20.75 -1.515625 21.296875 -0.09375 
L 1.609375 51.859375 
L 11.078125 51.859375 
L 21.875 21.828125 
Q 23.96875 16.109375 25.640625 9.8125 
Q 27.15625 15.875 29.25 21.625 
L 40.328125 51.859375 
L 49.125 51.859375 
L 29.390625 -0.875 
Q 26.21875 -9.421875 24.46875 -12.640625 
Q 22.125 -17 19.09375 -19.015625 
Q 16.0625 -21.046875 11.859375 -21.046875 
Q 9.328125 -21.046875 6.203125 -19.96875 
z
" id="ArialMT-121"/>
     </defs>
     <g style="fill:#262626;" transform="translate(22.924125 218.735625)rotate(-90)scale(0.216 -0.216)">
      <use xlink:href="#ArialMT-71"/>
      <use x="77.783203" xlink:href="#ArialMT-101"/>
      <use x="133.398438" xlink:href="#ArialMT-110"/>
      <use x="189.013672" xlink:href="#ArialMT-101"/>
      <use x="244.628906" xlink:href="#ArialMT-32"/>
      <use x="272.412109" xlink:href="#ArialMT-100"/>
      <use x="328.027344" xlink:href="#ArialMT-101"/>
      <use x="383.642578" xlink:href="#ArialMT-110"/>
      <use x="439.257812" xlink:href="#ArialMT-115"/>
      <use x="489.257812" xlink:href="#ArialMT-105"/>
      <use x="511.474609" xlink:href="#ArialMT-116"/>
      <use x="539.257812" xlink:href="#ArialMT-121"/>
     </g>
    </g>
   </g>
   <g id="patch_3">
    <path clip-path="url(#p2887d2356a)" d="M 103.751943 291 
L 111.834589 291 
L 111.834589 288.375792 
L 103.751943 288.375792 
z
" style="fill:#71529e;opacity:0.4;stroke:#ffffff;stroke-linejoin:miter;stroke-width:2;"/>
   </g>
   <g id="patch_4">
    <path clip-path="url(#p2887d2356a)" d="M 111.834589 291 
L 119.917236 291 
L 119.917236 286.407635 
L 111.834589 286.407635 
z
" style="fill:#71529e;opacity:0.4;stroke:#ffffff;stroke-linejoin:miter;stroke-width:2;"/>
   </g>
   <g id="patch_5">
    <path clip-path="url(#p2887d2356a)" d="M 119.917236 291 
L 127.999883 291 
L 127.999883 282.471323 
L 119.917236 282.471323 
z
" style="fill:#71529e;opacity:0.4;stroke:#ffffff;stroke-linejoin:miter;stroke-width:2;"/>
   </g>
   <g id="patch_6">
    <path clip-path="url(#p2887d2356a)" d="M 127.999883 291 
L 136.082529 291 
L 136.082529 279.191062 
L 127.999883 279.191062 
z
" style="fill:#71529e;opacity:0.4;stroke:#ffffff;stroke-linejoin:miter;stroke-width:2;"/>
   </g>
   <g id="patch_7">
    <path clip-path="url(#p2887d2356a)" d="M 136.082529 291 
L 144.165176 291 
L 144.165176 278.53501 
L 136.082529 278.53501 
z
" style="fill:#71529e;opacity:0.4;stroke:#ffffff;stroke-linejoin:miter;stroke-width:2;"/>
   </g>
   <g id="patch_8">
    <path clip-path="url(#p2887d2356a)" d="M 144.165176 291 
L 152.247823 291 
L 152.247823 268.038176 
L 144.165176 268.038176 
z
" style="fill:#71529e;opacity:0.4;stroke:#ffffff;stroke-linejoin:miter;stroke-width:2;"/>
   </g>
   <g id="patch_9">
    <path clip-path="url(#p2887d2356a)" d="M 152.247823 291 
L 160.330469 291 
L 160.330469 260.821603 
L 152.247823 260.821603 
z
" style="fill:#71529e;opacity:0.4;stroke:#ffffff;stroke-linejoin:miter;stroke-width:2;"/>
   </g>
   <g id="patch_10">
    <path clip-path="url(#p2887d2356a)" d="M 160.330469 291 
L 168.413116 291 
L 168.413116 256.229239 
L 160.330469 256.229239 
z
" style="fill:#71529e;opacity:0.4;stroke:#ffffff;stroke-linejoin:miter;stroke-width:2;"/>
   </g>
   <g id="patch_11">
    <path clip-path="url(#p2887d2356a)" d="M 168.413116 291 
L 176.495763 291 
L 176.495763 246.388457 
L 168.413116 246.388457 
z
" style="fill:#71529e;opacity:0.4;stroke:#ffffff;stroke-linejoin:miter;stroke-width:2;"/>
   </g>
   <g id="patch_12">
    <path clip-path="url(#p2887d2356a)" d="M 176.495763 291 
L 184.578409 291 
L 184.578409 226.706894 
L 176.495763 226.706894 
z
" style="fill:#71529e;opacity:0.4;stroke:#ffffff;stroke-linejoin:miter;stroke-width:2;"/>
   </g>
   <g id="patch_13">
    <path clip-path="url(#p2887d2356a)" d="M 184.578409 291 
L 192.661056 291 
L 192.661056 221.458477 
L 184.578409 221.458477 
z
" style="fill:#71529e;opacity:0.4;stroke:#ffffff;stroke-linejoin:miter;stroke-width:2;"/>
   </g>
   <g id="patch_14">
    <path clip-path="url(#p2887d2356a)" d="M 192.661056 291 
L 200.743703 291 
L 200.743703 207.025331 
L 192.661056 207.025331 
z
" style="fill:#71529e;opacity:0.4;stroke:#ffffff;stroke-linejoin:miter;stroke-width:2;"/>
   </g>
   <g id="patch_15">
    <path clip-path="url(#p2887d2356a)" d="M 200.743703 291 
L 208.826349 291 
L 208.826349 198.496653 
L 200.743703 198.496653 
z
" style="fill:#71529e;opacity:0.4;stroke:#ffffff;stroke-linejoin:miter;stroke-width:2;"/>
   </g>
   <g id="patch_16">
    <path clip-path="url(#p2887d2356a)" d="M 208.826349 291 
L 216.908996 291 
L 216.908996 179.471142 
L 208.826349 179.471142 
z
" style="fill:#71529e;opacity:0.4;stroke:#ffffff;stroke-linejoin:miter;stroke-width:2;"/>
   </g>
   <g id="patch_17">
    <path clip-path="url(#p2887d2356a)" d="M 216.908996 291 
L 224.991643 291 
L 224.991643 181.439299 
L 216.908996 181.439299 
z
" style="fill:#71529e;opacity:0.4;stroke:#ffffff;stroke-linejoin:miter;stroke-width:2;"/>
   </g>
   <g id="patch_18">
    <path clip-path="url(#p2887d2356a)" d="M 224.991643 291 
L 233.07429 291 
L 233.07429 163.725892 
L 224.991643 163.725892 
z
" style="fill:#71529e;opacity:0.4;stroke:#ffffff;stroke-linejoin:miter;stroke-width:2;"/>
   </g>
   <g id="patch_19">
    <path clip-path="url(#p2887d2356a)" d="M 233.07429 291 
L 241.156936 291 
L 241.156936 128.299078 
L 233.07429 128.299078 
z
" style="fill:#71529e;opacity:0.4;stroke:#ffffff;stroke-linejoin:miter;stroke-width:2;"/>
   </g>
   <g id="patch_20">
    <path clip-path="url(#p2887d2356a)" d="M 241.156936 291 
L 249.239583 291 
L 249.239583 121.082505 
L 241.156936 121.082505 
z
" style="fill:#71529e;opacity:0.4;stroke:#ffffff;stroke-linejoin:miter;stroke-width:2;"/>
   </g>
   <g id="patch_21">
    <path clip-path="url(#p2887d2356a)" d="M 249.239583 291 
L 257.32223 291 
L 257.32223 128.95513 
L 249.239583 128.95513 
z
" style="fill:#71529e;opacity:0.4;stroke:#ffffff;stroke-linejoin:miter;stroke-width:2;"/>
   </g>
   <g id="patch_22">
    <path clip-path="url(#p2887d2356a)" d="M 257.32223 291 
L 265.404876 291 
L 265.404876 159.789579 
L 257.32223 159.789579 
z
" style="fill:#71529e;opacity:0.4;stroke:#ffffff;stroke-linejoin:miter;stroke-width:2;"/>
   </g>
   <g id="patch_23">
    <path clip-path="url(#p2887d2356a)" d="M 265.404876 291 
L 273.487523 291 
L 273.487523 156.509319 
L 265.404876 156.509319 
z
" style="fill:#71529e;opacity:0.4;stroke:#ffffff;stroke-linejoin:miter;stroke-width:2;"/>
   </g>
   <g id="patch_24">
    <path clip-path="url(#p2887d2356a)" d="M 273.487523 291 
L 281.57017 291 
L 281.57017 180.127194 
L 273.487523 180.127194 
z
" style="fill:#71529e;opacity:0.4;stroke:#ffffff;stroke-linejoin:miter;stroke-width:2;"/>
   </g>
   <g id="patch_25">
    <path clip-path="url(#p2887d2356a)" d="M 281.57017 291 
L 289.652816 291 
L 289.652816 208.993487 
L 281.57017 208.993487 
z
" style="fill:#71529e;opacity:0.4;stroke:#ffffff;stroke-linejoin:miter;stroke-width:2;"/>
   </g>
   <g id="patch_26">
    <path clip-path="url(#p2887d2356a)" d="M 289.652816 291 
L 297.735463 291 
L 297.735463 221.458477 
L 289.652816 221.458477 
z
" style="fill:#71529e;opacity:0.4;stroke:#ffffff;stroke-linejoin:miter;stroke-width:2;"/>
   </g>
   <g id="patch_27">
    <path clip-path="url(#p2887d2356a)" d="M 297.735463 291 
L 305.81811 291 
L 305.81811 222.114529 
L 297.735463 222.114529 
z
" style="fill:#71529e;opacity:0.4;stroke:#ffffff;stroke-linejoin:miter;stroke-width:2;"/>
   </g>
   <g id="patch_28">
    <path clip-path="url(#p2887d2356a)" d="M 305.81811 291 
L 313.900756 291 
L 313.900756 250.32477 
L 305.81811 250.32477 
z
" style="fill:#71529e;opacity:0.4;stroke:#ffffff;stroke-linejoin:miter;stroke-width:2;"/>
   </g>
   <g id="patch_29">
    <path clip-path="url(#p2887d2356a)" d="M 313.900756 291 
L 321.983403 291 
L 321.983403 261.477655 
L 313.900756 261.477655 
z
" style="fill:#71529e;opacity:0.4;stroke:#ffffff;stroke-linejoin:miter;stroke-width:2;"/>
   </g>
   <g id="patch_30">
    <path clip-path="url(#p2887d2356a)" d="M 321.983403 291 
L 330.06605 291 
L 330.06605 264.757916 
L 321.983403 264.757916 
z
" style="fill:#71529e;opacity:0.4;stroke:#ffffff;stroke-linejoin:miter;stroke-width:2;"/>
   </g>
   <g id="patch_31">
    <path clip-path="url(#p2887d2356a)" d="M 330.06605 291 
L 338.148696 291 
L 338.148696 271.974489 
L 330.06605 271.974489 
z
" style="fill:#71529e;opacity:0.4;stroke:#ffffff;stroke-linejoin:miter;stroke-width:2;"/>
   </g>
   <g id="patch_32">
    <path clip-path="url(#p2887d2356a)" d="M 338.148696 291 
L 346.231343 291 
L 346.231343 277.222906 
L 338.148696 277.222906 
z
" style="fill:#71529e;opacity:0.4;stroke:#ffffff;stroke-linejoin:miter;stroke-width:2;"/>
   </g>
   <g id="patch_33">
    <path clip-path="url(#p2887d2356a)" d="M 346.231343 291 
L 354.31399 291 
L 354.31399 277.878958 
L 346.231343 277.878958 
z
" style="fill:#71529e;opacity:0.4;stroke:#ffffff;stroke-linejoin:miter;stroke-width:2;"/>
   </g>
   <g id="patch_34">
    <path clip-path="url(#p2887d2356a)" d="M 354.31399 291 
L 362.396637 291 
L 362.396637 285.095531 
L 354.31399 285.095531 
z
" style="fill:#71529e;opacity:0.4;stroke:#ffffff;stroke-linejoin:miter;stroke-width:2;"/>
   </g>
   <g id="patch_35">
    <path clip-path="url(#p2887d2356a)" d="M 362.396637 291 
L 370.479283 291 
L 370.479283 287.719739 
L 362.396637 287.719739 
z
" style="fill:#71529e;opacity:0.4;stroke:#ffffff;stroke-linejoin:miter;stroke-width:2;"/>
   </g>
   <g id="patch_36">
    <path clip-path="url(#p2887d2356a)" d="M 370.479283 291 
L 378.56193 291 
L 378.56193 285.095531 
L 370.479283 285.095531 
z
" style="fill:#71529e;opacity:0.4;stroke:#ffffff;stroke-linejoin:miter;stroke-width:2;"/>
   </g>
   <g id="patch_37">
    <path clip-path="url(#p2887d2356a)" d="M 378.56193 291 
L 386.644577 291 
L 386.644577 285.751583 
L 378.56193 285.751583 
z
" style="fill:#71529e;opacity:0.4;stroke:#ffffff;stroke-linejoin:miter;stroke-width:2;"/>
   </g>
   <g id="patch_38">
    <path clip-path="url(#p2887d2356a)" d="M 386.644577 291 
L 394.727223 291 
L 394.727223 287.719739 
L 386.644577 287.719739 
z
" style="fill:#71529e;opacity:0.4;stroke:#ffffff;stroke-linejoin:miter;stroke-width:2;"/>
   </g>
   <g id="patch_39">
    <path clip-path="url(#p2887d2356a)" d="M 394.727223 291 
L 402.80987 291 
L 402.80987 289.687896 
L 394.727223 289.687896 
z
" style="fill:#71529e;opacity:0.4;stroke:#ffffff;stroke-linejoin:miter;stroke-width:2;"/>
   </g>
   <g id="patch_40">
    <path clip-path="url(#p2887d2356a)" d="M 103.751943 291 
L 110.706778 291 
L 110.706778 283.496894 
L 103.751943 283.496894 
z
" style="fill:#e5699a;opacity:0.4;stroke:#ffffff;stroke-linejoin:miter;stroke-width:2;"/>
   </g>
   <g id="patch_41">
    <path clip-path="url(#p2887d2356a)" d="M 110.706778 291 
L 117.661614 291 
L 117.661614 281.621118 
L 110.706778 281.621118 
z
" style="fill:#e5699a;opacity:0.4;stroke:#ffffff;stroke-linejoin:miter;stroke-width:2;"/>
   </g>
   <g id="patch_42">
    <path clip-path="url(#p2887d2356a)" d="M 117.661614 291 
L 124.616449 291 
L 124.616449 277.869565 
L 117.661614 277.869565 
z
" style="fill:#e5699a;opacity:0.4;stroke:#ffffff;stroke-linejoin:miter;stroke-width:2;"/>
   </g>
   <g id="patch_43">
    <path clip-path="url(#p2887d2356a)" d="M 124.616449 291 
L 131.571285 291 
L 131.571285 260.987578 
L 124.616449 260.987578 
z
" style="fill:#e5699a;opacity:0.4;stroke:#ffffff;stroke-linejoin:miter;stroke-width:2;"/>
   </g>
   <g id="patch_44">
    <path clip-path="url(#p2887d2356a)" d="M 131.571285 291 
L 138.52612 291 
L 138.52612 264.73913 
L 131.571285 264.73913 
z
" style="fill:#e5699a;opacity:0.4;stroke:#ffffff;stroke-linejoin:miter;stroke-width:2;"/>
   </g>
   <g id="patch_45">
    <path clip-path="url(#p2887d2356a)" d="M 138.52612 291 
L 145.480956 291 
L 145.480956 255.360248 
L 138.52612 255.360248 
z
" style="fill:#e5699a;opacity:0.4;stroke:#ffffff;stroke-linejoin:miter;stroke-width:2;"/>
   </g>
   <g id="patch_46">
    <path clip-path="url(#p2887d2356a)" d="M 145.480956 291 
L 152.435791 291 
L 152.435791 232.850932 
L 145.480956 232.850932 
z
" style="fill:#e5699a;opacity:0.4;stroke:#ffffff;stroke-linejoin:miter;stroke-width:2;"/>
   </g>
   <g id="patch_47">
    <path clip-path="url(#p2887d2356a)" d="M 152.435791 291 
L 159.390627 291 
L 159.390627 210.341615 
L 152.435791 210.341615 
z
" style="fill:#e5699a;opacity:0.4;stroke:#ffffff;stroke-linejoin:miter;stroke-width:2;"/>
   </g>
   <g id="patch_48">
    <path clip-path="url(#p2887d2356a)" d="M 159.390627 291 
L 166.345462 291 
L 166.345462 214.093168 
L 159.390627 214.093168 
z
" style="fill:#e5699a;opacity:0.4;stroke:#ffffff;stroke-linejoin:miter;stroke-width:2;"/>
   </g>
   <g id="patch_49">
    <path clip-path="url(#p2887d2356a)" d="M 166.345462 291 
L 173.300298 291 
L 173.300298 187.832298 
L 166.345462 187.832298 
z
" style="fill:#e5699a;opacity:0.4;stroke:#ffffff;stroke-linejoin:miter;stroke-width:2;"/>
   </g>
   <g id="patch_50">
    <path clip-path="url(#p2887d2356a)" d="M 173.300298 291 
L 180.255133 291 
L 180.255133 161.571429 
L 173.300298 161.571429 
z
" style="fill:#e5699a;opacity:0.4;stroke:#ffffff;stroke-linejoin:miter;stroke-width:2;"/>
   </g>
   <g id="patch_51">
    <path clip-path="url(#p2887d2356a)" d="M 180.255133 291 
L 187.209969 291 
L 187.209969 122.180124 
L 180.255133 122.180124 
z
" style="fill:#e5699a;opacity:0.4;stroke:#ffffff;stroke-linejoin:miter;stroke-width:2;"/>
   </g>
   <g id="patch_52">
    <path clip-path="url(#p2887d2356a)" d="M 187.209969 291 
L 194.164804 291 
L 194.164804 99.670807 
L 187.209969 99.670807 
z
" style="fill:#e5699a;opacity:0.4;stroke:#ffffff;stroke-linejoin:miter;stroke-width:2;"/>
   </g>
   <g id="patch_53">
    <path clip-path="url(#p2887d2356a)" d="M 194.164804 291 
L 201.11964 291 
L 201.11964 95.919255 
L 194.164804 95.919255 
z
" style="fill:#e5699a;opacity:0.4;stroke:#ffffff;stroke-linejoin:miter;stroke-width:2;"/>
   </g>
   <g id="patch_54">
    <path clip-path="url(#p2887d2356a)" d="M 201.11964 291 
L 208.074475 291 
L 208.074475 65.906832 
L 201.11964 65.906832 
z
" style="fill:#e5699a;opacity:0.4;stroke:#ffffff;stroke-linejoin:miter;stroke-width:2;"/>
   </g>
   <g id="patch_55">
    <path clip-path="url(#p2887d2356a)" d="M 208.074475 291 
L 215.029311 291 
L 215.029311 32.142857 
L 208.074475 32.142857 
z
" style="fill:#e5699a;opacity:0.4;stroke:#ffffff;stroke-linejoin:miter;stroke-width:2;"/>
   </g>
   <g id="patch_56">
    <path clip-path="url(#p2887d2356a)" d="M 215.029311 291 
L 221.984146 291 
L 221.984146 71.534161 
L 215.029311 71.534161 
z
" style="fill:#e5699a;opacity:0.4;stroke:#ffffff;stroke-linejoin:miter;stroke-width:2;"/>
   </g>
   <g id="patch_57">
    <path clip-path="url(#p2887d2356a)" d="M 221.984146 291 
L 228.938982 291 
L 228.938982 291 
L 221.984146 291 
z
" style="fill:#e5699a;opacity:0.4;stroke:#ffffff;stroke-linejoin:miter;stroke-width:2;"/>
   </g>
   <g id="patch_58">
    <path clip-path="url(#p2887d2356a)" d="M 228.938982 291 
L 235.893817 291 
L 235.893817 291 
L 228.938982 291 
z
" style="fill:#e5699a;opacity:0.4;stroke:#ffffff;stroke-linejoin:miter;stroke-width:2;"/>
   </g>
   <g id="patch_59">
    <path clip-path="url(#p2887d2356a)" d="M 235.893817 291 
L 242.848653 291 
L 242.848653 291 
L 235.893817 291 
z
" style="fill:#e5699a;opacity:0.4;stroke:#ffffff;stroke-linejoin:miter;stroke-width:2;"/>
   </g>
   <g id="patch_60">
    <path clip-path="url(#p2887d2356a)" d="M 242.848653 291 
L 249.803488 291 
L 249.803488 291 
L 242.848653 291 
z
" style="fill:#e5699a;opacity:0.4;stroke:#ffffff;stroke-linejoin:miter;stroke-width:2;"/>
   </g>
   <g id="patch_61">
    <path clip-path="url(#p2887d2356a)" d="M 249.803488 291 
L 256.758324 291 
L 256.758324 291 
L 249.803488 291 
z
" style="fill:#e5699a;opacity:0.4;stroke:#ffffff;stroke-linejoin:miter;stroke-width:2;"/>
   </g>
   <g id="patch_62">
    <path clip-path="url(#p2887d2356a)" d="M 256.758324 291 
L 263.71316 291 
L 263.71316 291 
L 256.758324 291 
z
" style="fill:#e5699a;opacity:0.4;stroke:#ffffff;stroke-linejoin:miter;stroke-width:2;"/>
   </g>
   <g id="patch_63">
    <path clip-path="url(#p2887d2356a)" d="M 263.71316 291 
L 270.667995 291 
L 270.667995 291 
L 263.71316 291 
z
" style="fill:#e5699a;opacity:0.4;stroke:#ffffff;stroke-linejoin:miter;stroke-width:2;"/>
   </g>
   <g id="patch_64">
    <path clip-path="url(#p2887d2356a)" d="M 270.667995 291 
L 277.622831 291 
L 277.622831 291 
L 270.667995 291 
z
" style="fill:#e5699a;opacity:0.4;stroke:#ffffff;stroke-linejoin:miter;stroke-width:2;"/>
   </g>
   <g id="patch_65">
    <path clip-path="url(#p2887d2356a)" d="M 277.622831 291 
L 284.577666 291 
L 284.577666 291 
L 277.622831 291 
z
" style="fill:#e5699a;opacity:0.4;stroke:#ffffff;stroke-linejoin:miter;stroke-width:2;"/>
   </g>
   <g id="patch_66">
    <path clip-path="url(#p2887d2356a)" d="M 284.577666 291 
L 291.532502 291 
L 291.532502 291 
L 284.577666 291 
z
" style="fill:#e5699a;opacity:0.4;stroke:#ffffff;stroke-linejoin:miter;stroke-width:2;"/>
   </g>
   <g id="patch_67">
    <path clip-path="url(#p2887d2356a)" d="M 291.532502 291 
L 298.487337 291 
L 298.487337 291 
L 291.532502 291 
z
" style="fill:#e5699a;opacity:0.4;stroke:#ffffff;stroke-linejoin:miter;stroke-width:2;"/>
   </g>
   <g id="patch_68">
    <path clip-path="url(#p2887d2356a)" d="M 298.487337 291 
L 305.442173 291 
L 305.442173 180.329193 
L 298.487337 180.329193 
z
" style="fill:#e5699a;opacity:0.4;stroke:#ffffff;stroke-linejoin:miter;stroke-width:2;"/>
   </g>
   <g id="patch_69">
    <path clip-path="url(#p2887d2356a)" d="M 305.442173 291 
L 312.397008 291 
L 312.397008 193.459627 
L 305.442173 193.459627 
z
" style="fill:#e5699a;opacity:0.4;stroke:#ffffff;stroke-linejoin:miter;stroke-width:2;"/>
   </g>
   <g id="patch_70">
    <path clip-path="url(#p2887d2356a)" d="M 312.397008 291 
L 319.351844 291 
L 319.351844 204.714286 
L 312.397008 204.714286 
z
" style="fill:#e5699a;opacity:0.4;stroke:#ffffff;stroke-linejoin:miter;stroke-width:2;"/>
   </g>
   <g id="patch_71">
    <path clip-path="url(#p2887d2356a)" d="M 319.351844 291 
L 326.306679 291 
L 326.306679 223.47205 
L 319.351844 223.47205 
z
" style="fill:#e5699a;opacity:0.4;stroke:#ffffff;stroke-linejoin:miter;stroke-width:2;"/>
   </g>
   <g id="patch_72">
    <path clip-path="url(#p2887d2356a)" d="M 326.306679 291 
L 333.261515 291 
L 333.261515 221.596273 
L 326.306679 221.596273 
z
" style="fill:#e5699a;opacity:0.4;stroke:#ffffff;stroke-linejoin:miter;stroke-width:2;"/>
   </g>
   <g id="patch_73">
    <path clip-path="url(#p2887d2356a)" d="M 333.261515 291 
L 340.21635 291 
L 340.21635 257.236025 
L 333.261515 257.236025 
z
" style="fill:#e5699a;opacity:0.4;stroke:#ffffff;stroke-linejoin:miter;stroke-width:2;"/>
   </g>
   <g id="patch_74">
    <path clip-path="url(#p2887d2356a)" d="M 340.21635 291 
L 347.171186 291 
L 347.171186 260.987578 
L 340.21635 260.987578 
z
" style="fill:#e5699a;opacity:0.4;stroke:#ffffff;stroke-linejoin:miter;stroke-width:2;"/>
   </g>
   <g id="patch_75">
    <path clip-path="url(#p2887d2356a)" d="M 347.171186 291 
L 354.126021 291 
L 354.126021 257.236025 
L 347.171186 257.236025 
z
" style="fill:#e5699a;opacity:0.4;stroke:#ffffff;stroke-linejoin:miter;stroke-width:2;"/>
   </g>
   <g id="patch_76">
    <path clip-path="url(#p2887d2356a)" d="M 354.126021 291 
L 361.080857 291 
L 361.080857 274.118012 
L 354.126021 274.118012 
z
" style="fill:#e5699a;opacity:0.4;stroke:#ffffff;stroke-linejoin:miter;stroke-width:2;"/>
   </g>
   <g id="patch_77">
    <path clip-path="url(#p2887d2356a)" d="M 361.080857 291 
L 368.035692 291 
L 368.035692 285.372671 
L 361.080857 285.372671 
z
" style="fill:#e5699a;opacity:0.4;stroke:#ffffff;stroke-linejoin:miter;stroke-width:2;"/>
   </g>
   <g id="patch_78">
    <path clip-path="url(#p2887d2356a)" d="M 368.035692 291 
L 374.990528 291 
L 374.990528 279.745342 
L 368.035692 279.745342 
z
" style="fill:#e5699a;opacity:0.4;stroke:#ffffff;stroke-linejoin:miter;stroke-width:2;"/>
   </g>
   <g id="patch_79">
    <path clip-path="url(#p2887d2356a)" d="M 374.990528 291 
L 381.945363 291 
L 381.945363 274.118012 
L 374.990528 274.118012 
z
" style="fill:#e5699a;opacity:0.4;stroke:#ffffff;stroke-linejoin:miter;stroke-width:2;"/>
   </g>
   <g id="patch_80">
    <path clip-path="url(#p2887d2356a)" d="M 381.945363 291 
L 388.900199 291 
L 388.900199 275.993789 
L 381.945363 275.993789 
z
" style="fill:#e5699a;opacity:0.4;stroke:#ffffff;stroke-linejoin:miter;stroke-width:2;"/>
   </g>
   <g id="patch_81">
    <path clip-path="url(#p2887d2356a)" d="M 388.900199 291 
L 395.855034 291 
L 395.855034 289.124224 
L 388.900199 289.124224 
z
" style="fill:#e5699a;opacity:0.4;stroke:#ffffff;stroke-linejoin:miter;stroke-width:2;"/>
   </g>
   <g id="patch_82">
    <path clip-path="url(#p2887d2356a)" d="M 395.855034 291 
L 402.80987 291 
L 402.80987 287.248447 
L 395.855034 287.248447 
z
" style="fill:#e5699a;opacity:0.4;stroke:#ffffff;stroke-linejoin:miter;stroke-width:2;"/>
   </g>
   <g id="line2d_14">
    <path clip-path="url(#p2887d2356a)" d="M 75.735452 290.993673 
L 86.919417 290.872552 
L 92.5114 290.597739 
L 98.103383 290.022445 
L 103.695366 289.085777 
L 109.287349 287.793757 
L 114.879331 286.14413 
L 120.471314 284.174225 
L 128.859288 280.967666 
L 134.451271 278.584208 
L 137.247263 277.140797 
L 140.043254 275.436748 
L 142.839246 273.442131 
L 145.635237 271.175285 
L 151.22722 266.084137 
L 159.615194 257.905908 
L 162.411185 255.00078 
L 165.207177 251.892771 
L 168.003168 248.519395 
L 170.79916 244.860596 
L 176.391142 236.883595 
L 181.983125 228.728143 
L 187.575108 221.078657 
L 198.759074 206.369244 
L 204.351057 198.224082 
L 209.943039 189.49682 
L 218.331014 176.130739 
L 221.127005 171.473002 
L 223.922996 166.515043 
L 226.718988 161.183777 
L 235.106962 144.29533 
L 237.902953 139.456176 
L 240.698945 135.672845 
L 243.494936 133.267454 
L 246.290928 132.437964 
L 249.086919 133.224189 
L 251.882911 135.496058 
L 254.678902 138.979469 
L 257.474893 143.324822 
L 260.270885 148.198329 
L 265.862868 158.681788 
L 271.45485 169.790218 
L 277.046833 181.735096 
L 291.02679 212.970018 
L 293.822782 218.440293 
L 296.618773 223.509911 
L 302.210756 232.865588 
L 307.802739 241.797005 
L 310.59873 246.100507 
L 313.394722 250.181944 
L 316.190713 253.950456 
L 318.986704 257.353587 
L 321.782696 260.390534 
L 324.578687 263.105131 
L 327.374679 265.56527 
L 330.17067 267.837581 
L 335.762653 271.966633 
L 338.558644 273.828136 
L 341.354636 275.536021 
L 344.150627 277.087495 
L 349.74261 279.803786 
L 355.334593 282.168265 
L 358.130584 283.208615 
L 360.926576 284.102127 
L 363.722567 284.805756 
L 366.518558 285.300024 
L 369.31455 285.602757 
L 380.498515 286.213948 
L 383.294507 286.544263 
L 388.88649 287.531609 
L 397.274464 289.21423 
L 402.866447 290.034064 
L 408.45843 290.539419 
L 414.050412 290.812073 
L 422.438387 290.967727 
L 430.826361 290.995185 
L 430.826361 290.995185 
" style="fill:none;stroke:#71529e;stroke-linecap:round;stroke-width:3;"/>
   </g>
   <g id="line2d_15">
    <path clip-path="url(#p2887d2356a)" d="M 82.097582 290.984005 
L 87.489183 290.887502 
L 90.184984 290.730541 
L 92.880784 290.425497 
L 95.576584 289.904453 
L 98.272385 289.117575 
L 100.968185 288.057749 
L 103.663985 286.766251 
L 106.359786 285.307504 
L 109.055586 283.721559 
L 111.751387 281.98382 
L 114.447187 280.007444 
L 117.142987 277.704486 
L 119.838788 275.078157 
L 125.230388 269.540361 
L 127.926189 267.062885 
L 133.31779 262.639001 
L 136.01359 260.075212 
L 138.70939 256.770886 
L 141.405191 252.47313 
L 144.100991 247.125831 
L 146.796791 240.896023 
L 154.884193 220.79413 
L 162.971594 202.326392 
L 165.667394 195.371124 
L 168.363194 187.457456 
L 171.058995 178.470142 
L 173.754795 168.491625 
L 181.842196 136.876833 
L 184.537997 127.544787 
L 187.233797 119.091285 
L 195.321198 95.249627 
L 203.408599 70.411133 
L 206.1044 64.203963 
L 208.8002 62.063334 
L 211.496 67.068179 
L 214.191801 82.070714 
L 216.887601 108.047863 
L 219.583402 142.83948 
L 222.279202 181.390061 
L 224.975002 217.635394 
L 227.670803 246.900822 
L 230.366603 267.326918 
L 233.062403 279.698821 
L 235.758204 286.217686 
L 238.454004 289.210541 
L 241.149805 290.409062 
L 243.845605 290.828031 
L 249.237206 290.990077 
L 273.499409 290.9869 
L 278.89101 290.806472 
L 281.58681 290.387005 
L 284.282611 289.290782 
L 286.978411 286.798483 
L 289.674211 281.877579 
L 292.370012 273.460775 
L 295.065812 261.035774 
L 297.761612 245.297262 
L 300.457413 228.361192 
L 303.153213 213.177916 
L 305.849014 202.352616 
L 308.544814 197.107073 
L 311.240614 197.034234 
L 313.936415 200.658581 
L 316.632215 206.268617 
L 322.023816 218.551693 
L 324.719616 224.124267 
L 330.111217 234.328511 
L 335.502818 244.411905 
L 338.198618 249.190915 
L 340.894418 253.453955 
L 343.590219 257.077299 
L 346.286019 260.14649 
L 354.37342 268.553676 
L 357.069221 271.529234 
L 359.765021 274.306154 
L 362.460821 276.533789 
L 365.156622 277.971913 
L 367.852422 278.600057 
L 370.548223 278.608357 
L 375.939823 278.020377 
L 378.635624 278.017861 
L 381.331424 278.470452 
L 384.027224 279.434509 
L 386.723025 280.847838 
L 394.810426 285.937139 
L 397.506226 287.288673 
L 400.202027 288.334307 
L 402.897827 289.117081 
L 405.593627 289.705236 
L 408.289428 290.151574 
L 413.681029 290.713195 
L 419.072629 290.936849 
L 424.46423 290.987782 
L 424.46423 290.987782 
" style="fill:none;stroke:#e5699a;stroke-linecap:round;stroke-width:3;"/>
   </g>
   <g id="patch_83">
    <path d="M 57.980906 291 
L 57.980906 19.2 
" style="fill:none;stroke:#262626;stroke-linecap:square;stroke-linejoin:miter;stroke-width:2.5;"/>
   </g>
   <g id="patch_84">
    <path d="M 448.580906 291 
L 448.580906 19.2 
" style="fill:none;stroke:#262626;stroke-linecap:square;stroke-linejoin:miter;stroke-width:2.5;"/>
   </g>
   <g id="patch_85">
    <path d="M 57.980906 291 
L 448.580906 291 
" style="fill:none;stroke:#262626;stroke-linecap:square;stroke-linejoin:miter;stroke-width:2.5;"/>
   </g>
   <g id="patch_86">
    <path d="M 57.980906 19.2 
L 448.580906 19.2 
" style="fill:none;stroke:#262626;stroke-linecap:square;stroke-linejoin:miter;stroke-width:2.5;"/>
   </g>
  </g>
 </g>
 <defs>
  <clipPath id="p2887d2356a">
   <rect height="271.8" width="390.6" x="57.980906" y="19.2"/>
  </clipPath>
 </defs>
</svg>
