<?xml version="1.0" encoding="utf-8" standalone="no"?>
<!DOCTYPE svg PUBLIC "-//W3C//DTD SVG 1.1//EN"
  "http://www.w3.org/Graphics/SVG/1.1/DTD/svg11.dtd">
<!-- Created with matplotlib (https://matplotlib.org/) -->
<svg height="431.665594pt" version="1.1" viewBox="0 0 595.89225 431.665594" width="595.89225pt" xmlns="http://www.w3.org/2000/svg" xmlns:xlink="http://www.w3.org/1999/xlink">
 <defs>
  <style type="text/css">
*{stroke-linecap:butt;stroke-linejoin:round;}
  </style>
 </defs>
 <g id="figure_1">
  <g id="patch_1">
   <path d="M 0 431.665594 
L 595.89225 431.665594 
L 595.89225 0 
L 0 0 
z
" style="fill:none;"/>
  </g>
  <g id="axes_1">
   <g id="patch_2">
    <path d="M 74.49225 367.104 
L 576.69225 367.104 
L 576.69225 19.2 
L 74.49225 19.2 
z
" style="fill:none;"/>
   </g>
   <g id="matplotlib.axis_1">
    <g id="xtick_1">
     <g id="line2d_1">
      <defs>
       <path d="M 0 0 
L 0 12 
" id="m4df00020a6" style="stroke:#262626;stroke-width:2.5;"/>
      </defs>
      <g>
       <use style="fill:#262626;stroke:#262626;stroke-width:2.5;" x="128.070553" xlink:href="#m4df00020a6" y="367.104"/>
      </g>
     </g>
     <g id="text_1">
      <!-- −0.8 -->
      <defs>
       <path d="M 52.828125 31.203125 
L 5.5625 31.203125 
L 5.5625 39.40625 
L 52.828125 39.40625 
z
" id="ArialMT-8722"/>
       <path d="M 4.15625 35.296875 
Q 4.15625 48 6.765625 55.734375 
Q 9.375 63.484375 14.515625 67.671875 
Q 19.671875 71.875 27.484375 71.875 
Q 33.25 71.875 37.59375 69.546875 
Q 41.9375 67.234375 44.765625 62.859375 
Q 47.609375 58.5 49.21875 52.21875 
Q 50.828125 45.953125 50.828125 35.296875 
Q 50.828125 22.703125 48.234375 14.96875 
Q 45.65625 7.234375 40.5 3 
Q 35.359375 -1.21875 27.484375 -1.21875 
Q 17.140625 -1.21875 11.234375 6.203125 
Q 4.15625 15.140625 4.15625 35.296875 
z
M 13.1875 35.296875 
Q 13.1875 17.671875 17.3125 11.828125 
Q 21.4375 6 27.484375 6 
Q 33.546875 6 37.671875 11.859375 
Q 41.796875 17.71875 41.796875 35.296875 
Q 41.796875 52.984375 37.671875 58.78125 
Q 33.546875 64.59375 27.390625 64.59375 
Q 21.34375 64.59375 17.71875 59.46875 
Q 13.1875 52.9375 13.1875 35.296875 
z
" id="ArialMT-48"/>
       <path d="M 9.078125 0 
L 9.078125 10.015625 
L 19.09375 10.015625 
L 19.09375 0 
z
" id="ArialMT-46"/>
       <path d="M 17.671875 38.8125 
Q 12.203125 40.828125 9.5625 44.53125 
Q 6.9375 48.25 6.9375 53.421875 
Q 6.9375 61.234375 12.546875 66.546875 
Q 18.171875 71.875 27.484375 71.875 
Q 36.859375 71.875 42.578125 66.421875 
Q 48.296875 60.984375 48.296875 53.171875 
Q 48.296875 48.1875 45.671875 44.5 
Q 43.0625 40.828125 37.75 38.8125 
Q 44.34375 36.671875 47.78125 31.875 
Q 51.21875 27.09375 51.21875 20.453125 
Q 51.21875 11.28125 44.71875 5.03125 
Q 38.234375 -1.21875 27.640625 -1.21875 
Q 17.046875 -1.21875 10.546875 5.046875 
Q 4.046875 11.328125 4.046875 20.703125 
Q 4.046875 27.6875 7.59375 32.390625 
Q 11.140625 37.109375 17.671875 38.8125 
z
M 15.921875 53.71875 
Q 15.921875 48.640625 19.1875 45.40625 
Q 22.46875 42.1875 27.6875 42.1875 
Q 32.765625 42.1875 36.015625 45.375 
Q 39.265625 48.578125 39.265625 53.21875 
Q 39.265625 58.0625 35.90625 61.359375 
Q 32.5625 64.65625 27.59375 64.65625 
Q 22.5625 64.65625 19.234375 61.421875 
Q 15.921875 58.203125 15.921875 53.71875 
z
M 13.09375 20.65625 
Q 13.09375 16.890625 14.875 13.375 
Q 16.65625 9.859375 20.171875 7.921875 
Q 23.6875 6 27.734375 6 
Q 34.03125 6 38.125 10.046875 
Q 42.234375 14.109375 42.234375 20.359375 
Q 42.234375 26.703125 38.015625 30.859375 
Q 33.796875 35.015625 27.4375 35.015625 
Q 21.234375 35.015625 17.15625 30.90625 
Q 13.09375 26.8125 13.09375 20.65625 
z
" id="ArialMT-56"/>
      </defs>
      <g style="fill:#262626;" transform="translate(108.527334 396.776469)scale(0.198 -0.198)">
       <use xlink:href="#ArialMT-8722"/>
       <use x="58.398438" xlink:href="#ArialMT-48"/>
       <use x="114.013672" xlink:href="#ArialMT-46"/>
       <use x="141.796875" xlink:href="#ArialMT-56"/>
      </g>
     </g>
    </g>
    <g id="xtick_2">
     <g id="line2d_2">
      <g>
       <use style="fill:#262626;stroke:#262626;stroke-width:2.5;" x="179.815134" xlink:href="#m4df00020a6" y="367.104"/>
      </g>
     </g>
     <g id="text_2">
      <!-- −0.6 -->
      <defs>
       <path d="M 49.75 54.046875 
L 41.015625 53.375 
Q 39.84375 58.546875 37.703125 60.890625 
Q 34.125 64.65625 28.90625 64.65625 
Q 24.703125 64.65625 21.53125 62.3125 
Q 17.390625 59.28125 14.984375 53.46875 
Q 12.59375 47.65625 12.5 36.921875 
Q 15.671875 41.75 20.265625 44.09375 
Q 24.859375 46.4375 29.890625 46.4375 
Q 38.671875 46.4375 44.84375 39.96875 
Q 51.03125 33.5 51.03125 23.25 
Q 51.03125 16.5 48.125 10.71875 
Q 45.21875 4.9375 40.140625 1.859375 
Q 35.0625 -1.21875 28.609375 -1.21875 
Q 17.625 -1.21875 10.6875 6.859375 
Q 3.765625 14.9375 3.765625 33.5 
Q 3.765625 54.25 11.421875 63.671875 
Q 18.109375 71.875 29.4375 71.875 
Q 37.890625 71.875 43.28125 67.140625 
Q 48.6875 62.40625 49.75 54.046875 
z
M 13.875 23.1875 
Q 13.875 18.65625 15.796875 14.5 
Q 17.71875 10.359375 21.1875 8.171875 
Q 24.65625 6 28.46875 6 
Q 34.03125 6 38.03125 10.484375 
Q 42.046875 14.984375 42.046875 22.703125 
Q 42.046875 30.125 38.078125 34.390625 
Q 34.125 38.671875 28.125 38.671875 
Q 22.171875 38.671875 18.015625 34.390625 
Q 13.875 30.125 13.875 23.1875 
z
" id="ArialMT-54"/>
      </defs>
      <g style="fill:#262626;" transform="translate(160.271916 396.776469)scale(0.198 -0.198)">
       <use xlink:href="#ArialMT-8722"/>
       <use x="58.398438" xlink:href="#ArialMT-48"/>
       <use x="114.013672" xlink:href="#ArialMT-46"/>
       <use x="141.796875" xlink:href="#ArialMT-54"/>
      </g>
     </g>
    </g>
    <g id="xtick_3">
     <g id="line2d_3">
      <g>
       <use style="fill:#262626;stroke:#262626;stroke-width:2.5;" x="231.559716" xlink:href="#m4df00020a6" y="367.104"/>
      </g>
     </g>
     <g id="text_3">
      <!-- −0.4 -->
      <defs>
       <path d="M 32.328125 0 
L 32.328125 17.140625 
L 1.265625 17.140625 
L 1.265625 25.203125 
L 33.9375 71.578125 
L 41.109375 71.578125 
L 41.109375 25.203125 
L 50.78125 25.203125 
L 50.78125 17.140625 
L 41.109375 17.140625 
L 41.109375 0 
z
M 32.328125 25.203125 
L 32.328125 57.46875 
L 9.90625 25.203125 
z
" id="ArialMT-52"/>
      </defs>
      <g style="fill:#262626;" transform="translate(212.016497 396.776469)scale(0.198 -0.198)">
       <use xlink:href="#ArialMT-8722"/>
       <use x="58.398438" xlink:href="#ArialMT-48"/>
       <use x="114.013672" xlink:href="#ArialMT-46"/>
       <use x="141.796875" xlink:href="#ArialMT-52"/>
      </g>
     </g>
    </g>
    <g id="xtick_4">
     <g id="line2d_4">
      <g>
       <use style="fill:#262626;stroke:#262626;stroke-width:2.5;" x="283.304297" xlink:href="#m4df00020a6" y="367.104"/>
      </g>
     </g>
     <g id="text_4">
      <!-- −0.2 -->
      <defs>
       <path d="M 50.34375 8.453125 
L 50.34375 0 
L 3.03125 0 
Q 2.9375 3.171875 4.046875 6.109375 
Q 5.859375 10.9375 9.828125 15.625 
Q 13.8125 20.3125 21.34375 26.46875 
Q 33.015625 36.03125 37.109375 41.625 
Q 41.21875 47.21875 41.21875 52.203125 
Q 41.21875 57.421875 37.46875 61 
Q 33.734375 64.59375 27.734375 64.59375 
Q 21.390625 64.59375 17.578125 60.78125 
Q 13.765625 56.984375 13.71875 50.25 
L 4.6875 51.171875 
Q 5.609375 61.28125 11.65625 66.578125 
Q 17.71875 71.875 27.9375 71.875 
Q 38.234375 71.875 44.234375 66.15625 
Q 50.25 60.453125 50.25 52 
Q 50.25 47.703125 48.484375 43.546875 
Q 46.734375 39.40625 42.65625 34.8125 
Q 38.578125 30.21875 29.109375 22.21875 
Q 21.1875 15.578125 18.9375 13.203125 
Q 16.703125 10.84375 15.234375 8.453125 
z
" id="ArialMT-50"/>
      </defs>
      <g style="fill:#262626;" transform="translate(263.761078 396.776469)scale(0.198 -0.198)">
       <use xlink:href="#ArialMT-8722"/>
       <use x="58.398438" xlink:href="#ArialMT-48"/>
       <use x="114.013672" xlink:href="#ArialMT-46"/>
       <use x="141.796875" xlink:href="#ArialMT-50"/>
      </g>
     </g>
    </g>
    <g id="xtick_5">
     <g id="line2d_5">
      <g>
       <use style="fill:#262626;stroke:#262626;stroke-width:2.5;" x="335.048878" xlink:href="#m4df00020a6" y="367.104"/>
      </g>
     </g>
     <g id="text_5">
      <!-- 0.0 -->
      <g style="fill:#262626;" transform="translate(321.287878 396.776469)scale(0.198 -0.198)">
       <use xlink:href="#ArialMT-48"/>
       <use x="55.615234" xlink:href="#ArialMT-46"/>
       <use x="83.398438" xlink:href="#ArialMT-48"/>
      </g>
     </g>
    </g>
    <g id="xtick_6">
     <g id="line2d_6">
      <g>
       <use style="fill:#262626;stroke:#262626;stroke-width:2.5;" x="386.793459" xlink:href="#m4df00020a6" y="367.104"/>
      </g>
     </g>
     <g id="text_6">
      <!-- 0.2 -->
      <g style="fill:#262626;" transform="translate(373.032459 396.776469)scale(0.198 -0.198)">
       <use xlink:href="#ArialMT-48"/>
       <use x="55.615234" xlink:href="#ArialMT-46"/>
       <use x="83.398438" xlink:href="#ArialMT-50"/>
      </g>
     </g>
    </g>
    <g id="xtick_7">
     <g id="line2d_7">
      <g>
       <use style="fill:#262626;stroke:#262626;stroke-width:2.5;" x="438.538041" xlink:href="#m4df00020a6" y="367.104"/>
      </g>
     </g>
     <g id="text_7">
      <!-- 0.4 -->
      <g style="fill:#262626;" transform="translate(424.777041 396.776469)scale(0.198 -0.198)">
       <use xlink:href="#ArialMT-48"/>
       <use x="55.615234" xlink:href="#ArialMT-46"/>
       <use x="83.398438" xlink:href="#ArialMT-52"/>
      </g>
     </g>
    </g>
    <g id="xtick_8">
     <g id="line2d_8">
      <g>
       <use style="fill:#262626;stroke:#262626;stroke-width:2.5;" x="490.282622" xlink:href="#m4df00020a6" y="367.104"/>
      </g>
     </g>
     <g id="text_8">
      <!-- 0.6 -->
      <g style="fill:#262626;" transform="translate(476.521622 396.776469)scale(0.198 -0.198)">
       <use xlink:href="#ArialMT-48"/>
       <use x="55.615234" xlink:href="#ArialMT-46"/>
       <use x="83.398438" xlink:href="#ArialMT-54"/>
      </g>
     </g>
    </g>
    <g id="xtick_9">
     <g id="line2d_9">
      <g>
       <use style="fill:#262626;stroke:#262626;stroke-width:2.5;" x="542.027203" xlink:href="#m4df00020a6" y="367.104"/>
      </g>
     </g>
     <g id="text_9">
      <!-- 0.8 -->
      <g style="fill:#262626;" transform="translate(528.266203 396.776469)scale(0.198 -0.198)">
       <use xlink:href="#ArialMT-48"/>
       <use x="55.615234" xlink:href="#ArialMT-46"/>
       <use x="83.398438" xlink:href="#ArialMT-56"/>
      </g>
     </g>
    </g>
    <g id="text_10">
     <!-- Pearson correlation coefficient -->
     <defs>
      <path d="M 7.71875 0 
L 7.71875 71.578125 
L 34.71875 71.578125 
Q 41.84375 71.578125 45.609375 70.90625 
Q 50.875 70.015625 54.4375 67.546875 
Q 58.015625 65.09375 60.1875 60.640625 
Q 62.359375 56.203125 62.359375 50.875 
Q 62.359375 41.75 56.546875 35.421875 
Q 50.734375 29.109375 35.546875 29.109375 
L 17.1875 29.109375 
L 17.1875 0 
z
M 17.1875 37.546875 
L 35.6875 37.546875 
Q 44.875 37.546875 48.734375 40.96875 
Q 52.59375 44.390625 52.59375 50.59375 
Q 52.59375 55.078125 50.3125 58.265625 
Q 48.046875 61.46875 44.34375 62.5 
Q 41.9375 63.140625 35.5 63.140625 
L 17.1875 63.140625 
z
" id="ArialMT-80"/>
      <path d="M 42.09375 16.703125 
L 51.171875 15.578125 
Q 49.03125 7.625 43.21875 3.21875 
Q 37.40625 -1.171875 28.375 -1.171875 
Q 17 -1.171875 10.328125 5.828125 
Q 3.65625 12.84375 3.65625 25.484375 
Q 3.65625 38.578125 10.390625 45.796875 
Q 17.140625 53.03125 27.875 53.03125 
Q 38.28125 53.03125 44.875 45.953125 
Q 51.46875 38.875 51.46875 26.03125 
Q 51.46875 25.25 51.421875 23.6875 
L 12.75 23.6875 
Q 13.234375 15.140625 17.578125 10.59375 
Q 21.921875 6.0625 28.421875 6.0625 
Q 33.25 6.0625 36.671875 8.59375 
Q 40.09375 11.140625 42.09375 16.703125 
z
M 13.234375 30.90625 
L 42.1875 30.90625 
Q 41.609375 37.453125 38.875 40.71875 
Q 34.671875 45.796875 27.984375 45.796875 
Q 21.921875 45.796875 17.796875 41.75 
Q 13.671875 37.703125 13.234375 30.90625 
z
" id="ArialMT-101"/>
      <path d="M 40.4375 6.390625 
Q 35.546875 2.25 31.03125 0.53125 
Q 26.515625 -1.171875 21.34375 -1.171875 
Q 12.796875 -1.171875 8.203125 3 
Q 3.609375 7.171875 3.609375 13.671875 
Q 3.609375 17.484375 5.34375 20.625 
Q 7.078125 23.78125 9.890625 25.6875 
Q 12.703125 27.59375 16.21875 28.5625 
Q 18.796875 29.25 24.03125 29.890625 
Q 34.671875 31.15625 39.703125 32.90625 
Q 39.75 34.71875 39.75 35.203125 
Q 39.75 40.578125 37.25 42.78125 
Q 33.890625 45.75 27.25 45.75 
Q 21.046875 45.75 18.09375 43.578125 
Q 15.140625 41.40625 13.71875 35.890625 
L 5.125 37.0625 
Q 6.296875 42.578125 8.984375 45.96875 
Q 11.671875 49.359375 16.75 51.1875 
Q 21.828125 53.03125 28.515625 53.03125 
Q 35.15625 53.03125 39.296875 51.46875 
Q 43.453125 49.90625 45.40625 47.53125 
Q 47.359375 45.171875 48.140625 41.546875 
Q 48.578125 39.3125 48.578125 33.453125 
L 48.578125 21.734375 
Q 48.578125 9.46875 49.140625 6.21875 
Q 49.703125 2.984375 51.375 0 
L 42.1875 0 
Q 40.828125 2.734375 40.4375 6.390625 
z
M 39.703125 26.03125 
Q 34.90625 24.078125 25.34375 22.703125 
Q 19.921875 21.921875 17.671875 20.9375 
Q 15.4375 19.96875 14.203125 18.09375 
Q 12.984375 16.21875 12.984375 13.921875 
Q 12.984375 10.40625 15.640625 8.0625 
Q 18.3125 5.71875 23.4375 5.71875 
Q 28.515625 5.71875 32.46875 7.9375 
Q 36.421875 10.15625 38.28125 14.015625 
Q 39.703125 17 39.703125 22.796875 
z
" id="ArialMT-97"/>
      <path d="M 6.5 0 
L 6.5 51.859375 
L 14.40625 51.859375 
L 14.40625 44 
Q 17.4375 49.515625 20 51.265625 
Q 22.5625 53.03125 25.640625 53.03125 
Q 30.078125 53.03125 34.671875 50.203125 
L 31.640625 42.046875 
Q 28.421875 43.953125 25.203125 43.953125 
Q 22.3125 43.953125 20.015625 42.21875 
Q 17.71875 40.484375 16.75 37.40625 
Q 15.28125 32.71875 15.28125 27.15625 
L 15.28125 0 
z
" id="ArialMT-114"/>
      <path d="M 3.078125 15.484375 
L 11.765625 16.84375 
Q 12.5 11.625 15.84375 8.84375 
Q 19.1875 6.0625 25.203125 6.0625 
Q 31.25 6.0625 34.171875 8.515625 
Q 37.109375 10.984375 37.109375 14.3125 
Q 37.109375 17.28125 34.515625 19 
Q 32.71875 20.171875 25.53125 21.96875 
Q 15.875 24.421875 12.140625 26.203125 
Q 8.40625 27.984375 6.46875 31.125 
Q 4.546875 34.28125 4.546875 38.09375 
Q 4.546875 41.546875 6.125 44.5 
Q 7.71875 47.46875 10.453125 49.421875 
Q 12.5 50.921875 16.03125 51.96875 
Q 19.578125 53.03125 23.640625 53.03125 
Q 29.734375 53.03125 34.34375 51.265625 
Q 38.96875 49.515625 41.15625 46.5 
Q 43.359375 43.5 44.1875 38.484375 
L 35.59375 37.3125 
Q 35.015625 41.3125 32.203125 43.546875 
Q 29.390625 45.796875 24.265625 45.796875 
Q 18.21875 45.796875 15.625 43.796875 
Q 13.03125 41.796875 13.03125 39.109375 
Q 13.03125 37.40625 14.109375 36.03125 
Q 15.1875 34.625 17.484375 33.6875 
Q 18.796875 33.203125 25.25 31.453125 
Q 34.578125 28.953125 38.25 27.359375 
Q 41.9375 25.78125 44.03125 22.75 
Q 46.140625 19.734375 46.140625 15.234375 
Q 46.140625 10.84375 43.578125 6.953125 
Q 41.015625 3.078125 36.171875 0.953125 
Q 31.34375 -1.171875 25.25 -1.171875 
Q 15.140625 -1.171875 9.84375 3.03125 
Q 4.546875 7.234375 3.078125 15.484375 
z
" id="ArialMT-115"/>
      <path d="M 3.328125 25.921875 
Q 3.328125 40.328125 11.328125 47.265625 
Q 18.015625 53.03125 27.640625 53.03125 
Q 38.328125 53.03125 45.109375 46.015625 
Q 51.90625 39.015625 51.90625 26.65625 
Q 51.90625 16.65625 48.90625 10.90625 
Q 45.90625 5.171875 40.15625 2 
Q 34.421875 -1.171875 27.640625 -1.171875 
Q 16.75 -1.171875 10.03125 5.8125 
Q 3.328125 12.796875 3.328125 25.921875 
z
M 12.359375 25.921875 
Q 12.359375 15.96875 16.703125 11.015625 
Q 21.046875 6.0625 27.640625 6.0625 
Q 34.1875 6.0625 38.53125 11.03125 
Q 42.875 16.015625 42.875 26.21875 
Q 42.875 35.84375 38.5 40.796875 
Q 34.125 45.75 27.640625 45.75 
Q 21.046875 45.75 16.703125 40.8125 
Q 12.359375 35.890625 12.359375 25.921875 
z
" id="ArialMT-111"/>
      <path d="M 6.59375 0 
L 6.59375 51.859375 
L 14.5 51.859375 
L 14.5 44.484375 
Q 20.21875 53.03125 31 53.03125 
Q 35.6875 53.03125 39.625 51.34375 
Q 43.5625 49.65625 45.515625 46.921875 
Q 47.46875 44.1875 48.25 40.4375 
Q 48.734375 37.984375 48.734375 31.890625 
L 48.734375 0 
L 39.9375 0 
L 39.9375 31.546875 
Q 39.9375 36.921875 38.90625 39.578125 
Q 37.890625 42.234375 35.28125 43.8125 
Q 32.671875 45.40625 29.15625 45.40625 
Q 23.53125 45.40625 19.453125 41.84375 
Q 15.375 38.28125 15.375 28.328125 
L 15.375 0 
z
" id="ArialMT-110"/>
      <path id="ArialMT-32"/>
      <path d="M 40.4375 19 
L 49.078125 17.875 
Q 47.65625 8.9375 41.8125 3.875 
Q 35.984375 -1.171875 27.484375 -1.171875 
Q 16.84375 -1.171875 10.375 5.78125 
Q 3.90625 12.75 3.90625 25.734375 
Q 3.90625 34.125 6.6875 40.421875 
Q 9.46875 46.734375 15.15625 49.875 
Q 20.84375 53.03125 27.546875 53.03125 
Q 35.984375 53.03125 41.359375 48.75 
Q 46.734375 44.484375 48.25 36.625 
L 39.703125 35.296875 
Q 38.484375 40.53125 35.375 43.15625 
Q 32.28125 45.796875 27.875 45.796875 
Q 21.234375 45.796875 17.078125 41.03125 
Q 12.9375 36.28125 12.9375 25.984375 
Q 12.9375 15.53125 16.9375 10.796875 
Q 20.953125 6.0625 27.390625 6.0625 
Q 32.5625 6.0625 36.03125 9.234375 
Q 39.5 12.40625 40.4375 19 
z
" id="ArialMT-99"/>
      <path d="M 6.390625 0 
L 6.390625 71.578125 
L 15.1875 71.578125 
L 15.1875 0 
z
" id="ArialMT-108"/>
      <path d="M 25.78125 7.859375 
L 27.046875 0.09375 
Q 23.34375 -0.6875 20.40625 -0.6875 
Q 15.625 -0.6875 12.984375 0.828125 
Q 10.359375 2.34375 9.28125 4.8125 
Q 8.203125 7.28125 8.203125 15.1875 
L 8.203125 45.015625 
L 1.765625 45.015625 
L 1.765625 51.859375 
L 8.203125 51.859375 
L 8.203125 64.703125 
L 16.9375 69.96875 
L 16.9375 51.859375 
L 25.78125 51.859375 
L 25.78125 45.015625 
L 16.9375 45.015625 
L 16.9375 14.703125 
Q 16.9375 10.9375 17.40625 9.859375 
Q 17.875 8.796875 18.921875 8.15625 
Q 19.96875 7.515625 21.921875 7.515625 
Q 23.390625 7.515625 25.78125 7.859375 
z
" id="ArialMT-116"/>
      <path d="M 6.640625 61.46875 
L 6.640625 71.578125 
L 15.4375 71.578125 
L 15.4375 61.46875 
z
M 6.640625 0 
L 6.640625 51.859375 
L 15.4375 51.859375 
L 15.4375 0 
z
" id="ArialMT-105"/>
      <path d="M 8.6875 0 
L 8.6875 45.015625 
L 0.921875 45.015625 
L 0.921875 51.859375 
L 8.6875 51.859375 
L 8.6875 57.375 
Q 8.6875 62.59375 9.625 65.140625 
Q 10.890625 68.5625 14.078125 70.671875 
Q 17.28125 72.796875 23.046875 72.796875 
Q 26.765625 72.796875 31.25 71.921875 
L 29.9375 64.265625 
Q 27.203125 64.75 24.75 64.75 
Q 20.75 64.75 19.09375 63.03125 
Q 17.4375 61.328125 17.4375 56.640625 
L 17.4375 51.859375 
L 27.546875 51.859375 
L 27.546875 45.015625 
L 17.4375 45.015625 
L 17.4375 0 
z
" id="ArialMT-102"/>
     </defs>
     <g style="fill:#262626;" transform="translate(180.3255 420.172594)scale(0.216 -0.216)">
      <use xlink:href="#ArialMT-80"/>
      <use x="66.699219" xlink:href="#ArialMT-101"/>
      <use x="122.314453" xlink:href="#ArialMT-97"/>
      <use x="177.929688" xlink:href="#ArialMT-114"/>
      <use x="211.230469" xlink:href="#ArialMT-115"/>
      <use x="261.230469" xlink:href="#ArialMT-111"/>
      <use x="316.845703" xlink:href="#ArialMT-110"/>
      <use x="372.460938" xlink:href="#ArialMT-32"/>
      <use x="400.244141" xlink:href="#ArialMT-99"/>
      <use x="450.244141" xlink:href="#ArialMT-111"/>
      <use x="505.859375" xlink:href="#ArialMT-114"/>
      <use x="539.160156" xlink:href="#ArialMT-114"/>
      <use x="572.460938" xlink:href="#ArialMT-101"/>
      <use x="628.076172" xlink:href="#ArialMT-108"/>
      <use x="650.292969" xlink:href="#ArialMT-97"/>
      <use x="705.908203" xlink:href="#ArialMT-116"/>
      <use x="733.691406" xlink:href="#ArialMT-105"/>
      <use x="755.908203" xlink:href="#ArialMT-111"/>
      <use x="811.523438" xlink:href="#ArialMT-110"/>
      <use x="867.138672" xlink:href="#ArialMT-32"/>
      <use x="894.921875" xlink:href="#ArialMT-99"/>
      <use x="944.921875" xlink:href="#ArialMT-111"/>
      <use x="1000.537109" xlink:href="#ArialMT-101"/>
      <use x="1056.152344" xlink:href="#ArialMT-102"/>
      <use x="1083.919922" xlink:href="#ArialMT-102"/>
      <use x="1111.703125" xlink:href="#ArialMT-105"/>
      <use x="1133.919922" xlink:href="#ArialMT-99"/>
      <use x="1183.919922" xlink:href="#ArialMT-105"/>
      <use x="1206.136719" xlink:href="#ArialMT-101"/>
      <use x="1261.751953" xlink:href="#ArialMT-110"/>
      <use x="1317.367188" xlink:href="#ArialMT-116"/>
     </g>
    </g>
   </g>
   <g id="matplotlib.axis_2">
    <g id="ytick_1">
     <g id="line2d_10">
      <defs>
       <path d="M 0 0 
L -12 0 
" id="ma018346f8b" style="stroke:#262626;stroke-width:2.5;"/>
      </defs>
      <g>
       <use style="fill:#262626;stroke:#262626;stroke-width:2.5;" x="74.49225" xlink:href="#ma018346f8b" y="367.104"/>
      </g>
     </g>
     <g id="text_11">
      <!-- 0.0 -->
      <g style="fill:#262626;" transform="translate(31.47025 374.190234)scale(0.198 -0.198)">
       <use xlink:href="#ArialMT-48"/>
       <use x="55.615234" xlink:href="#ArialMT-46"/>
       <use x="83.398438" xlink:href="#ArialMT-48"/>
      </g>
     </g>
    </g>
    <g id="ytick_2">
     <g id="line2d_11">
      <g>
       <use style="fill:#262626;stroke:#262626;stroke-width:2.5;" x="74.49225" xlink:href="#ma018346f8b" y="313.372711"/>
      </g>
     </g>
     <g id="text_12">
      <!-- 0.5 -->
      <defs>
       <path d="M 4.15625 18.75 
L 13.375 19.53125 
Q 14.40625 12.796875 18.140625 9.390625 
Q 21.875 6 27.15625 6 
Q 33.5 6 37.890625 10.78125 
Q 42.28125 15.578125 42.28125 23.484375 
Q 42.28125 31 38.0625 35.34375 
Q 33.84375 39.703125 27 39.703125 
Q 22.75 39.703125 19.328125 37.765625 
Q 15.921875 35.84375 13.96875 32.765625 
L 5.71875 33.84375 
L 12.640625 70.609375 
L 48.25 70.609375 
L 48.25 62.203125 
L 19.671875 62.203125 
L 15.828125 42.96875 
Q 22.265625 47.46875 29.34375 47.46875 
Q 38.71875 47.46875 45.15625 40.96875 
Q 51.609375 34.46875 51.609375 24.265625 
Q 51.609375 14.546875 45.953125 7.46875 
Q 39.0625 -1.21875 27.15625 -1.21875 
Q 17.390625 -1.21875 11.203125 4.25 
Q 5.03125 9.71875 4.15625 18.75 
z
" id="ArialMT-53"/>
      </defs>
      <g style="fill:#262626;" transform="translate(31.47025 320.458945)scale(0.198 -0.198)">
       <use xlink:href="#ArialMT-48"/>
       <use x="55.615234" xlink:href="#ArialMT-46"/>
       <use x="83.398438" xlink:href="#ArialMT-53"/>
      </g>
     </g>
    </g>
    <g id="ytick_3">
     <g id="line2d_12">
      <g>
       <use style="fill:#262626;stroke:#262626;stroke-width:2.5;" x="74.49225" xlink:href="#ma018346f8b" y="259.641421"/>
      </g>
     </g>
     <g id="text_13">
      <!-- 1.0 -->
      <defs>
       <path d="M 37.25 0 
L 28.46875 0 
L 28.46875 56 
Q 25.296875 52.984375 20.140625 49.953125 
Q 14.984375 46.921875 10.890625 45.40625 
L 10.890625 53.90625 
Q 18.265625 57.375 23.78125 62.296875 
Q 29.296875 67.234375 31.59375 71.875 
L 37.25 71.875 
z
" id="ArialMT-49"/>
      </defs>
      <g style="fill:#262626;" transform="translate(31.47025 266.727656)scale(0.198 -0.198)">
       <use xlink:href="#ArialMT-49"/>
       <use x="55.615234" xlink:href="#ArialMT-46"/>
       <use x="83.398438" xlink:href="#ArialMT-48"/>
      </g>
     </g>
    </g>
    <g id="ytick_4">
     <g id="line2d_13">
      <g>
       <use style="fill:#262626;stroke:#262626;stroke-width:2.5;" x="74.49225" xlink:href="#ma018346f8b" y="205.910132"/>
      </g>
     </g>
     <g id="text_14">
      <!-- 1.5 -->
      <g style="fill:#262626;" transform="translate(31.47025 212.996367)scale(0.198 -0.198)">
       <use xlink:href="#ArialMT-49"/>
       <use x="55.615234" xlink:href="#ArialMT-46"/>
       <use x="83.398438" xlink:href="#ArialMT-53"/>
      </g>
     </g>
    </g>
    <g id="ytick_5">
     <g id="line2d_14">
      <g>
       <use style="fill:#262626;stroke:#262626;stroke-width:2.5;" x="74.49225" xlink:href="#ma018346f8b" y="152.178843"/>
      </g>
     </g>
     <g id="text_15">
      <!-- 2.0 -->
      <g style="fill:#262626;" transform="translate(31.47025 159.265077)scale(0.198 -0.198)">
       <use xlink:href="#ArialMT-50"/>
       <use x="55.615234" xlink:href="#ArialMT-46"/>
       <use x="83.398438" xlink:href="#ArialMT-48"/>
      </g>
     </g>
    </g>
    <g id="ytick_6">
     <g id="line2d_15">
      <g>
       <use style="fill:#262626;stroke:#262626;stroke-width:2.5;" x="74.49225" xlink:href="#ma018346f8b" y="98.447554"/>
      </g>
     </g>
     <g id="text_16">
      <!-- 2.5 -->
      <g style="fill:#262626;" transform="translate(31.47025 105.533788)scale(0.198 -0.198)">
       <use xlink:href="#ArialMT-50"/>
       <use x="55.615234" xlink:href="#ArialMT-46"/>
       <use x="83.398438" xlink:href="#ArialMT-53"/>
      </g>
     </g>
    </g>
    <g id="ytick_7">
     <g id="line2d_16">
      <g>
       <use style="fill:#262626;stroke:#262626;stroke-width:2.5;" x="74.49225" xlink:href="#ma018346f8b" y="44.716264"/>
      </g>
     </g>
     <g id="text_17">
      <!-- 3.0 -->
      <defs>
       <path d="M 4.203125 18.890625 
L 12.984375 20.0625 
Q 14.5 12.59375 18.140625 9.296875 
Q 21.78125 6 27 6 
Q 33.203125 6 37.46875 10.296875 
Q 41.75 14.59375 41.75 20.953125 
Q 41.75 27 37.796875 30.921875 
Q 33.84375 34.859375 27.734375 34.859375 
Q 25.25 34.859375 21.53125 33.890625 
L 22.515625 41.609375 
Q 23.390625 41.5 23.921875 41.5 
Q 29.546875 41.5 34.03125 44.421875 
Q 38.53125 47.359375 38.53125 53.46875 
Q 38.53125 58.296875 35.25 61.46875 
Q 31.984375 64.65625 26.8125 64.65625 
Q 21.6875 64.65625 18.265625 61.421875 
Q 14.84375 58.203125 13.875 51.765625 
L 5.078125 53.328125 
Q 6.6875 62.15625 12.390625 67.015625 
Q 18.109375 71.875 26.609375 71.875 
Q 32.46875 71.875 37.390625 69.359375 
Q 42.328125 66.84375 44.9375 62.5 
Q 47.5625 58.15625 47.5625 53.265625 
Q 47.5625 48.640625 45.0625 44.828125 
Q 42.578125 41.015625 37.703125 38.765625 
Q 44.046875 37.3125 47.5625 32.6875 
Q 51.078125 28.078125 51.078125 21.140625 
Q 51.078125 11.765625 44.234375 5.25 
Q 37.40625 -1.265625 26.953125 -1.265625 
Q 17.53125 -1.265625 11.296875 4.34375 
Q 5.078125 9.96875 4.203125 18.890625 
z
" id="ArialMT-51"/>
      </defs>
      <g style="fill:#262626;" transform="translate(31.47025 51.802499)scale(0.198 -0.198)">
       <use xlink:href="#ArialMT-51"/>
       <use x="55.615234" xlink:href="#ArialMT-46"/>
       <use x="83.398438" xlink:href="#ArialMT-48"/>
      </g>
     </g>
    </g>
    <g id="text_18">
     <!-- Gene density -->
     <defs>
      <path d="M 41.21875 28.078125 
L 41.21875 36.46875 
L 71.53125 36.53125 
L 71.53125 9.96875 
Q 64.546875 4.390625 57.125 1.578125 
Q 49.703125 -1.21875 41.890625 -1.21875 
Q 31.34375 -1.21875 22.71875 3.296875 
Q 14.109375 7.8125 9.71875 16.359375 
Q 5.328125 24.90625 5.328125 35.453125 
Q 5.328125 45.90625 9.6875 54.953125 
Q 14.0625 64.015625 22.265625 68.40625 
Q 30.46875 72.796875 41.15625 72.796875 
Q 48.921875 72.796875 55.1875 70.28125 
Q 61.46875 67.78125 65.03125 63.28125 
Q 68.609375 58.796875 70.453125 51.5625 
L 61.921875 49.21875 
Q 60.296875 54.6875 57.90625 57.8125 
Q 55.515625 60.9375 51.0625 62.8125 
Q 46.625 64.703125 41.21875 64.703125 
Q 34.71875 64.703125 29.984375 62.71875 
Q 25.25 60.75 22.34375 57.515625 
Q 19.4375 54.296875 17.828125 50.4375 
Q 15.09375 43.796875 15.09375 36.03125 
Q 15.09375 26.46875 18.390625 20.015625 
Q 21.6875 13.578125 27.984375 10.453125 
Q 34.28125 7.328125 41.359375 7.328125 
Q 47.515625 7.328125 53.375 9.6875 
Q 59.234375 12.0625 62.25 14.75 
L 62.25 28.078125 
z
" id="ArialMT-71"/>
      <path d="M 40.234375 0 
L 40.234375 6.546875 
Q 35.296875 -1.171875 25.734375 -1.171875 
Q 19.53125 -1.171875 14.328125 2.25 
Q 9.125 5.671875 6.265625 11.796875 
Q 3.421875 17.921875 3.421875 25.875 
Q 3.421875 33.640625 6 39.96875 
Q 8.59375 46.296875 13.765625 49.65625 
Q 18.953125 53.03125 25.34375 53.03125 
Q 30.03125 53.03125 33.6875 51.046875 
Q 37.359375 49.078125 39.65625 45.90625 
L 39.65625 71.578125 
L 48.390625 71.578125 
L 48.390625 0 
z
M 12.453125 25.875 
Q 12.453125 15.921875 16.640625 10.984375 
Q 20.84375 6.0625 26.5625 6.0625 
Q 32.328125 6.0625 36.34375 10.765625 
Q 40.375 15.484375 40.375 25.140625 
Q 40.375 35.796875 36.265625 40.765625 
Q 32.171875 45.75 26.171875 45.75 
Q 20.3125 45.75 16.375 40.96875 
Q 12.453125 36.1875 12.453125 25.875 
z
" id="ArialMT-100"/>
      <path d="M 6.203125 -19.96875 
L 5.21875 -11.71875 
Q 8.109375 -12.5 10.25 -12.5 
Q 13.1875 -12.5 14.9375 -11.515625 
Q 16.703125 -10.546875 17.828125 -8.796875 
Q 18.65625 -7.46875 20.515625 -2.25 
Q 20.75 -1.515625 21.296875 -0.09375 
L 1.609375 51.859375 
L 11.078125 51.859375 
L 21.875 21.828125 
Q 23.96875 16.109375 25.640625 9.8125 
Q 27.15625 15.875 29.25 21.625 
L 40.328125 51.859375 
L 49.125 51.859375 
L 29.390625 -0.875 
Q 26.21875 -9.421875 24.46875 -12.640625 
Q 22.125 -17 19.09375 -19.015625 
Q 16.0625 -21.046875 11.859375 -21.046875 
Q 9.328125 -21.046875 6.203125 -19.96875 
z
" id="ArialMT-121"/>
     </defs>
     <g style="fill:#262626;" transform="translate(22.924125 256.787625)rotate(-90)scale(0.216 -0.216)">
      <use xlink:href="#ArialMT-71"/>
      <use x="77.783203" xlink:href="#ArialMT-101"/>
      <use x="133.398438" xlink:href="#ArialMT-110"/>
      <use x="189.013672" xlink:href="#ArialMT-101"/>
      <use x="244.628906" xlink:href="#ArialMT-32"/>
      <use x="272.412109" xlink:href="#ArialMT-100"/>
      <use x="328.027344" xlink:href="#ArialMT-101"/>
      <use x="383.642578" xlink:href="#ArialMT-110"/>
      <use x="439.257812" xlink:href="#ArialMT-115"/>
      <use x="489.257812" xlink:href="#ArialMT-105"/>
      <use x="511.474609" xlink:href="#ArialMT-116"/>
      <use x="539.257812" xlink:href="#ArialMT-121"/>
     </g>
    </g>
   </g>
   <g id="patch_3">
    <path clip-path="url(#pfc3304ee93)" d="M 133.340725 367.104 
L 143.7327 367.104 
L 143.7327 363.745013 
L 133.340725 363.745013 
z
" style="fill:#71529e;opacity:0.4;stroke:#ffffff;stroke-linejoin:miter;stroke-width:2;"/>
   </g>
   <g id="patch_4">
    <path clip-path="url(#pfc3304ee93)" d="M 143.7327 367.104 
L 154.124674 367.104 
L 154.124674 361.225773 
L 143.7327 361.225773 
z
" style="fill:#71529e;opacity:0.4;stroke:#ffffff;stroke-linejoin:miter;stroke-width:2;"/>
   </g>
   <g id="patch_5">
    <path clip-path="url(#pfc3304ee93)" d="M 154.124674 367.104 
L 164.516648 367.104 
L 164.516648 356.187293 
L 154.124674 356.187293 
z
" style="fill:#71529e;opacity:0.4;stroke:#ffffff;stroke-linejoin:miter;stroke-width:2;"/>
   </g>
   <g id="patch_6">
    <path clip-path="url(#pfc3304ee93)" d="M 164.516648 367.104 
L 174.908622 367.104 
L 174.908622 351.98856 
L 164.516648 351.98856 
z
" style="fill:#71529e;opacity:0.4;stroke:#ffffff;stroke-linejoin:miter;stroke-width:2;"/>
   </g>
   <g id="patch_7">
    <path clip-path="url(#pfc3304ee93)" d="M 174.908622 367.104 
L 185.300597 367.104 
L 185.300597 351.148813 
L 174.908622 351.148813 
z
" style="fill:#71529e;opacity:0.4;stroke:#ffffff;stroke-linejoin:miter;stroke-width:2;"/>
   </g>
   <g id="patch_8">
    <path clip-path="url(#pfc3304ee93)" d="M 185.300597 367.104 
L 195.692571 367.104 
L 195.692571 337.712866 
L 185.300597 337.712866 
z
" style="fill:#71529e;opacity:0.4;stroke:#ffffff;stroke-linejoin:miter;stroke-width:2;"/>
   </g>
   <g id="patch_9">
    <path clip-path="url(#pfc3304ee93)" d="M 195.692571 367.104 
L 206.084545 367.104 
L 206.084545 328.475652 
L 195.692571 328.475652 
z
" style="fill:#71529e;opacity:0.4;stroke:#ffffff;stroke-linejoin:miter;stroke-width:2;"/>
   </g>
   <g id="patch_10">
    <path clip-path="url(#pfc3304ee93)" d="M 206.084545 367.104 
L 216.47652 367.104 
L 216.47652 322.597425 
L 206.084545 322.597425 
z
" style="fill:#71529e;opacity:0.4;stroke:#ffffff;stroke-linejoin:miter;stroke-width:2;"/>
   </g>
   <g id="patch_11">
    <path clip-path="url(#pfc3304ee93)" d="M 216.47652 367.104 
L 226.868494 367.104 
L 226.868494 310.001225 
L 216.47652 310.001225 
z
" style="fill:#71529e;opacity:0.4;stroke:#ffffff;stroke-linejoin:miter;stroke-width:2;"/>
   </g>
   <g id="patch_12">
    <path clip-path="url(#pfc3304ee93)" d="M 226.868494 367.104 
L 237.260468 367.104 
L 237.260468 284.808824 
L 226.868494 284.808824 
z
" style="fill:#71529e;opacity:0.4;stroke:#ffffff;stroke-linejoin:miter;stroke-width:2;"/>
   </g>
   <g id="patch_13">
    <path clip-path="url(#pfc3304ee93)" d="M 237.260468 367.104 
L 247.652443 367.104 
L 247.652443 278.090851 
L 237.260468 278.090851 
z
" style="fill:#71529e;opacity:0.4;stroke:#ffffff;stroke-linejoin:miter;stroke-width:2;"/>
   </g>
   <g id="patch_14">
    <path clip-path="url(#pfc3304ee93)" d="M 247.652443 367.104 
L 258.044417 367.104 
L 258.044417 259.616423 
L 247.652443 259.616423 
z
" style="fill:#71529e;opacity:0.4;stroke:#ffffff;stroke-linejoin:miter;stroke-width:2;"/>
   </g>
   <g id="patch_15">
    <path clip-path="url(#pfc3304ee93)" d="M 258.044417 367.104 
L 268.436391 367.104 
L 268.436391 248.699716 
L 258.044417 248.699716 
z
" style="fill:#71529e;opacity:0.4;stroke:#ffffff;stroke-linejoin:miter;stroke-width:2;"/>
   </g>
   <g id="patch_16">
    <path clip-path="url(#pfc3304ee93)" d="M 268.436391 367.104 
L 278.828366 367.104 
L 278.828366 224.347062 
L 268.436391 224.347062 
z
" style="fill:#71529e;opacity:0.4;stroke:#ffffff;stroke-linejoin:miter;stroke-width:2;"/>
   </g>
   <g id="patch_17">
    <path clip-path="url(#pfc3304ee93)" d="M 278.828366 367.104 
L 289.22034 367.104 
L 289.22034 226.866302 
L 278.828366 226.866302 
z
" style="fill:#71529e;opacity:0.4;stroke:#ffffff;stroke-linejoin:miter;stroke-width:2;"/>
   </g>
   <g id="patch_18">
    <path clip-path="url(#pfc3304ee93)" d="M 289.22034 367.104 
L 299.612314 367.104 
L 299.612314 204.193142 
L 289.22034 204.193142 
z
" style="fill:#71529e;opacity:0.4;stroke:#ffffff;stroke-linejoin:miter;stroke-width:2;"/>
   </g>
   <g id="patch_19">
    <path clip-path="url(#pfc3304ee93)" d="M 299.612314 367.104 
L 310.004289 367.104 
L 310.004289 158.84682 
L 299.612314 158.84682 
z
" style="fill:#71529e;opacity:0.4;stroke:#ffffff;stroke-linejoin:miter;stroke-width:2;"/>
   </g>
   <g id="patch_20">
    <path clip-path="url(#pfc3304ee93)" d="M 310.004289 367.104 
L 320.396263 367.104 
L 320.396263 149.609607 
L 310.004289 149.609607 
z
" style="fill:#71529e;opacity:0.4;stroke:#ffffff;stroke-linejoin:miter;stroke-width:2;"/>
   </g>
   <g id="patch_21">
    <path clip-path="url(#pfc3304ee93)" d="M 320.396263 367.104 
L 330.788237 367.104 
L 330.788237 159.686567 
L 320.396263 159.686567 
z
" style="fill:#71529e;opacity:0.4;stroke:#ffffff;stroke-linejoin:miter;stroke-width:2;"/>
   </g>
   <g id="patch_22">
    <path clip-path="url(#pfc3304ee93)" d="M 330.788237 367.104 
L 341.180211 367.104 
L 341.180211 199.154661 
L 330.788237 199.154661 
z
" style="fill:#71529e;opacity:0.4;stroke:#ffffff;stroke-linejoin:miter;stroke-width:2;"/>
   </g>
   <g id="patch_23">
    <path clip-path="url(#pfc3304ee93)" d="M 341.180211 367.104 
L 351.572186 367.104 
L 351.572186 194.955928 
L 341.180211 194.955928 
z
" style="fill:#71529e;opacity:0.4;stroke:#ffffff;stroke-linejoin:miter;stroke-width:2;"/>
   </g>
   <g id="patch_24">
    <path clip-path="url(#pfc3304ee93)" d="M 351.572186 367.104 
L 361.96416 367.104 
L 361.96416 225.186809 
L 351.572186 225.186809 
z
" style="fill:#71529e;opacity:0.4;stroke:#ffffff;stroke-linejoin:miter;stroke-width:2;"/>
   </g>
   <g id="patch_25">
    <path clip-path="url(#pfc3304ee93)" d="M 361.96416 367.104 
L 372.356134 367.104 
L 372.356134 262.135663 
L 361.96416 262.135663 
z
" style="fill:#71529e;opacity:0.4;stroke:#ffffff;stroke-linejoin:miter;stroke-width:2;"/>
   </g>
   <g id="patch_26">
    <path clip-path="url(#pfc3304ee93)" d="M 372.356134 367.104 
L 382.748109 367.104 
L 382.748109 278.090851 
L 372.356134 278.090851 
z
" style="fill:#71529e;opacity:0.4;stroke:#ffffff;stroke-linejoin:miter;stroke-width:2;"/>
   </g>
   <g id="patch_27">
    <path clip-path="url(#pfc3304ee93)" d="M 382.748109 367.104 
L 393.140083 367.104 
L 393.140083 278.930597 
L 382.748109 278.930597 
z
" style="fill:#71529e;opacity:0.4;stroke:#ffffff;stroke-linejoin:miter;stroke-width:2;"/>
   </g>
   <g id="patch_28">
    <path clip-path="url(#pfc3304ee93)" d="M 393.140083 367.104 
L 403.532057 367.104 
L 403.532057 315.039705 
L 393.140083 315.039705 
z
" style="fill:#71529e;opacity:0.4;stroke:#ffffff;stroke-linejoin:miter;stroke-width:2;"/>
   </g>
   <g id="patch_29">
    <path clip-path="url(#pfc3304ee93)" d="M 403.532057 367.104 
L 413.924032 367.104 
L 413.924032 329.315399 
L 403.532057 329.315399 
z
" style="fill:#71529e;opacity:0.4;stroke:#ffffff;stroke-linejoin:miter;stroke-width:2;"/>
   </g>
   <g id="patch_30">
    <path clip-path="url(#pfc3304ee93)" d="M 413.924032 367.104 
L 424.316006 367.104 
L 424.316006 333.514132 
L 413.924032 333.514132 
z
" style="fill:#71529e;opacity:0.4;stroke:#ffffff;stroke-linejoin:miter;stroke-width:2;"/>
   </g>
   <g id="patch_31">
    <path clip-path="url(#pfc3304ee93)" d="M 424.316006 367.104 
L 434.70798 367.104 
L 434.70798 342.751346 
L 424.316006 342.751346 
z
" style="fill:#71529e;opacity:0.4;stroke:#ffffff;stroke-linejoin:miter;stroke-width:2;"/>
   </g>
   <g id="patch_32">
    <path clip-path="url(#pfc3304ee93)" d="M 434.70798 367.104 
L 445.099955 367.104 
L 445.099955 349.469319 
L 434.70798 349.469319 
z
" style="fill:#71529e;opacity:0.4;stroke:#ffffff;stroke-linejoin:miter;stroke-width:2;"/>
   </g>
   <g id="patch_33">
    <path clip-path="url(#pfc3304ee93)" d="M 445.099955 367.104 
L 455.491929 367.104 
L 455.491929 350.309066 
L 445.099955 350.309066 
z
" style="fill:#71529e;opacity:0.4;stroke:#ffffff;stroke-linejoin:miter;stroke-width:2;"/>
   </g>
   <g id="patch_34">
    <path clip-path="url(#pfc3304ee93)" d="M 455.491929 367.104 
L 465.883903 367.104 
L 465.883903 359.54628 
L 455.491929 359.54628 
z
" style="fill:#71529e;opacity:0.4;stroke:#ffffff;stroke-linejoin:miter;stroke-width:2;"/>
   </g>
   <g id="patch_35">
    <path clip-path="url(#pfc3304ee93)" d="M 465.883903 367.104 
L 476.275878 367.104 
L 476.275878 362.905267 
L 465.883903 362.905267 
z
" style="fill:#71529e;opacity:0.4;stroke:#ffffff;stroke-linejoin:miter;stroke-width:2;"/>
   </g>
   <g id="patch_36">
    <path clip-path="url(#pfc3304ee93)" d="M 476.275878 367.104 
L 486.667852 367.104 
L 486.667852 359.54628 
L 476.275878 359.54628 
z
" style="fill:#71529e;opacity:0.4;stroke:#ffffff;stroke-linejoin:miter;stroke-width:2;"/>
   </g>
   <g id="patch_37">
    <path clip-path="url(#pfc3304ee93)" d="M 486.667852 367.104 
L 497.059826 367.104 
L 497.059826 360.386026 
L 486.667852 360.386026 
z
" style="fill:#71529e;opacity:0.4;stroke:#ffffff;stroke-linejoin:miter;stroke-width:2;"/>
   </g>
   <g id="patch_38">
    <path clip-path="url(#pfc3304ee93)" d="M 497.059826 367.104 
L 507.4518 367.104 
L 507.4518 362.905267 
L 497.059826 362.905267 
z
" style="fill:#71529e;opacity:0.4;stroke:#ffffff;stroke-linejoin:miter;stroke-width:2;"/>
   </g>
   <g id="patch_39">
    <path clip-path="url(#pfc3304ee93)" d="M 507.4518 367.104 
L 517.843775 367.104 
L 517.843775 365.424507 
L 507.4518 365.424507 
z
" style="fill:#71529e;opacity:0.4;stroke:#ffffff;stroke-linejoin:miter;stroke-width:2;"/>
   </g>
   <g id="patch_40">
    <path clip-path="url(#pfc3304ee93)" d="M 133.340725 367.104 
L 142.282657 367.104 
L 142.282657 357.500025 
L 133.340725 357.500025 
z
" style="fill:#e5699a;opacity:0.4;stroke:#ffffff;stroke-linejoin:miter;stroke-width:2;"/>
   </g>
   <g id="patch_41">
    <path clip-path="url(#pfc3304ee93)" d="M 142.282657 367.104 
L 151.224588 367.104 
L 151.224588 355.099031 
L 142.282657 355.099031 
z
" style="fill:#e5699a;opacity:0.4;stroke:#ffffff;stroke-linejoin:miter;stroke-width:2;"/>
   </g>
   <g id="patch_42">
    <path clip-path="url(#pfc3304ee93)" d="M 151.224588 367.104 
L 160.166519 367.104 
L 160.166519 350.297043 
L 151.224588 350.297043 
z
" style="fill:#e5699a;opacity:0.4;stroke:#ffffff;stroke-linejoin:miter;stroke-width:2;"/>
   </g>
   <g id="patch_43">
    <path clip-path="url(#pfc3304ee93)" d="M 160.166519 367.104 
L 169.108451 367.104 
L 169.108451 328.688099 
L 160.166519 328.688099 
z
" style="fill:#e5699a;opacity:0.4;stroke:#ffffff;stroke-linejoin:miter;stroke-width:2;"/>
   </g>
   <g id="patch_44">
    <path clip-path="url(#pfc3304ee93)" d="M 169.108451 367.104 
L 178.050382 367.104 
L 178.050382 333.490087 
L 169.108451 333.490087 
z
" style="fill:#e5699a;opacity:0.4;stroke:#ffffff;stroke-linejoin:miter;stroke-width:2;"/>
   </g>
   <g id="patch_45">
    <path clip-path="url(#pfc3304ee93)" d="M 178.050382 367.104 
L 186.992314 367.104 
L 186.992314 321.485118 
L 178.050382 321.485118 
z
" style="fill:#e5699a;opacity:0.4;stroke:#ffffff;stroke-linejoin:miter;stroke-width:2;"/>
   </g>
   <g id="patch_46">
    <path clip-path="url(#pfc3304ee93)" d="M 186.992314 367.104 
L 195.934245 367.104 
L 195.934245 292.673193 
L 186.992314 292.673193 
z
" style="fill:#e5699a;opacity:0.4;stroke:#ffffff;stroke-linejoin:miter;stroke-width:2;"/>
   </g>
   <g id="patch_47">
    <path clip-path="url(#pfc3304ee93)" d="M 195.934245 367.104 
L 204.876176 367.104 
L 204.876176 263.861267 
L 195.934245 263.861267 
z
" style="fill:#e5699a;opacity:0.4;stroke:#ffffff;stroke-linejoin:miter;stroke-width:2;"/>
   </g>
   <g id="patch_48">
    <path clip-path="url(#pfc3304ee93)" d="M 204.876176 367.104 
L 213.818108 367.104 
L 213.818108 268.663255 
L 204.876176 268.663255 
z
" style="fill:#e5699a;opacity:0.4;stroke:#ffffff;stroke-linejoin:miter;stroke-width:2;"/>
   </g>
   <g id="patch_49">
    <path clip-path="url(#pfc3304ee93)" d="M 213.818108 367.104 
L 222.760039 367.104 
L 222.760039 235.049342 
L 213.818108 235.049342 
z
" style="fill:#e5699a;opacity:0.4;stroke:#ffffff;stroke-linejoin:miter;stroke-width:2;"/>
   </g>
   <g id="patch_50">
    <path clip-path="url(#pfc3304ee93)" d="M 222.760039 367.104 
L 231.70197 367.104 
L 231.70197 201.435429 
L 222.760039 201.435429 
z
" style="fill:#e5699a;opacity:0.4;stroke:#ffffff;stroke-linejoin:miter;stroke-width:2;"/>
   </g>
   <g id="patch_51">
    <path clip-path="url(#pfc3304ee93)" d="M 231.70197 367.104 
L 240.643902 367.104 
L 240.643902 151.014559 
L 231.70197 151.014559 
z
" style="fill:#e5699a;opacity:0.4;stroke:#ffffff;stroke-linejoin:miter;stroke-width:2;"/>
   </g>
   <g id="patch_52">
    <path clip-path="url(#pfc3304ee93)" d="M 240.643902 367.104 
L 249.585833 367.104 
L 249.585833 122.202634 
L 240.643902 122.202634 
z
" style="fill:#e5699a;opacity:0.4;stroke:#ffffff;stroke-linejoin:miter;stroke-width:2;"/>
   </g>
   <g id="patch_53">
    <path clip-path="url(#pfc3304ee93)" d="M 249.585833 367.104 
L 258.527765 367.104 
L 258.527765 117.400646 
L 249.585833 117.400646 
z
" style="fill:#e5699a;opacity:0.4;stroke:#ffffff;stroke-linejoin:miter;stroke-width:2;"/>
   </g>
   <g id="patch_54">
    <path clip-path="url(#pfc3304ee93)" d="M 258.527765 367.104 
L 267.469696 367.104 
L 267.469696 78.984745 
L 258.527765 78.984745 
z
" style="fill:#e5699a;opacity:0.4;stroke:#ffffff;stroke-linejoin:miter;stroke-width:2;"/>
   </g>
   <g id="patch_55">
    <path clip-path="url(#pfc3304ee93)" d="M 267.469696 367.104 
L 276.411627 367.104 
L 276.411627 35.766857 
L 267.469696 35.766857 
z
" style="fill:#e5699a;opacity:0.4;stroke:#ffffff;stroke-linejoin:miter;stroke-width:2;"/>
   </g>
   <g id="patch_56">
    <path clip-path="url(#pfc3304ee93)" d="M 276.411627 367.104 
L 285.353559 367.104 
L 285.353559 86.187727 
L 276.411627 86.187727 
z
" style="fill:#e5699a;opacity:0.4;stroke:#ffffff;stroke-linejoin:miter;stroke-width:2;"/>
   </g>
   <g id="patch_57">
    <path clip-path="url(#pfc3304ee93)" d="M 285.353559 367.104 
L 294.29549 367.104 
L 294.29549 367.104 
L 285.353559 367.104 
z
" style="fill:#e5699a;opacity:0.4;stroke:#ffffff;stroke-linejoin:miter;stroke-width:2;"/>
   </g>
   <g id="patch_58">
    <path clip-path="url(#pfc3304ee93)" d="M 294.29549 367.104 
L 303.237422 367.104 
L 303.237422 367.104 
L 294.29549 367.104 
z
" style="fill:#e5699a;opacity:0.4;stroke:#ffffff;stroke-linejoin:miter;stroke-width:2;"/>
   </g>
   <g id="patch_59">
    <path clip-path="url(#pfc3304ee93)" d="M 303.237422 367.104 
L 312.179353 367.104 
L 312.179353 367.104 
L 303.237422 367.104 
z
" style="fill:#e5699a;opacity:0.4;stroke:#ffffff;stroke-linejoin:miter;stroke-width:2;"/>
   </g>
   <g id="patch_60">
    <path clip-path="url(#pfc3304ee93)" d="M 312.179353 367.104 
L 321.121284 367.104 
L 321.121284 367.104 
L 312.179353 367.104 
z
" style="fill:#e5699a;opacity:0.4;stroke:#ffffff;stroke-linejoin:miter;stroke-width:2;"/>
   </g>
   <g id="patch_61">
    <path clip-path="url(#pfc3304ee93)" d="M 321.121284 367.104 
L 330.063216 367.104 
L 330.063216 367.104 
L 321.121284 367.104 
z
" style="fill:#e5699a;opacity:0.4;stroke:#ffffff;stroke-linejoin:miter;stroke-width:2;"/>
   </g>
   <g id="patch_62">
    <path clip-path="url(#pfc3304ee93)" d="M 330.063216 367.104 
L 339.005147 367.104 
L 339.005147 367.104 
L 330.063216 367.104 
z
" style="fill:#e5699a;opacity:0.4;stroke:#ffffff;stroke-linejoin:miter;stroke-width:2;"/>
   </g>
   <g id="patch_63">
    <path clip-path="url(#pfc3304ee93)" d="M 339.005147 367.104 
L 347.947078 367.104 
L 347.947078 367.104 
L 339.005147 367.104 
z
" style="fill:#e5699a;opacity:0.4;stroke:#ffffff;stroke-linejoin:miter;stroke-width:2;"/>
   </g>
   <g id="patch_64">
    <path clip-path="url(#pfc3304ee93)" d="M 347.947078 367.104 
L 356.88901 367.104 
L 356.88901 367.104 
L 347.947078 367.104 
z
" style="fill:#e5699a;opacity:0.4;stroke:#ffffff;stroke-linejoin:miter;stroke-width:2;"/>
   </g>
   <g id="patch_65">
    <path clip-path="url(#pfc3304ee93)" d="M 356.88901 367.104 
L 365.830941 367.104 
L 365.830941 367.104 
L 356.88901 367.104 
z
" style="fill:#e5699a;opacity:0.4;stroke:#ffffff;stroke-linejoin:miter;stroke-width:2;"/>
   </g>
   <g id="patch_66">
    <path clip-path="url(#pfc3304ee93)" d="M 365.830941 367.104 
L 374.772873 367.104 
L 374.772873 367.104 
L 365.830941 367.104 
z
" style="fill:#e5699a;opacity:0.4;stroke:#ffffff;stroke-linejoin:miter;stroke-width:2;"/>
   </g>
   <g id="patch_67">
    <path clip-path="url(#pfc3304ee93)" d="M 374.772873 367.104 
L 383.714804 367.104 
L 383.714804 367.104 
L 374.772873 367.104 
z
" style="fill:#e5699a;opacity:0.4;stroke:#ffffff;stroke-linejoin:miter;stroke-width:2;"/>
   </g>
   <g id="patch_68">
    <path clip-path="url(#pfc3304ee93)" d="M 383.714804 367.104 
L 392.656735 367.104 
L 392.656735 225.445366 
L 383.714804 225.445366 
z
" style="fill:#e5699a;opacity:0.4;stroke:#ffffff;stroke-linejoin:miter;stroke-width:2;"/>
   </g>
   <g id="patch_69">
    <path clip-path="url(#pfc3304ee93)" d="M 392.656735 367.104 
L 401.598667 367.104 
L 401.598667 242.252323 
L 392.656735 242.252323 
z
" style="fill:#e5699a;opacity:0.4;stroke:#ffffff;stroke-linejoin:miter;stroke-width:2;"/>
   </g>
   <g id="patch_70">
    <path clip-path="url(#pfc3304ee93)" d="M 401.598667 367.104 
L 410.540598 367.104 
L 410.540598 256.658286 
L 401.598667 256.658286 
z
" style="fill:#e5699a;opacity:0.4;stroke:#ffffff;stroke-linejoin:miter;stroke-width:2;"/>
   </g>
   <g id="patch_71">
    <path clip-path="url(#pfc3304ee93)" d="M 410.540598 367.104 
L 419.48253 367.104 
L 419.48253 280.668224 
L 410.540598 280.668224 
z
" style="fill:#e5699a;opacity:0.4;stroke:#ffffff;stroke-linejoin:miter;stroke-width:2;"/>
   </g>
   <g id="patch_72">
    <path clip-path="url(#pfc3304ee93)" d="M 419.48253 367.104 
L 428.424461 367.104 
L 428.424461 278.26723 
L 419.48253 278.26723 
z
" style="fill:#e5699a;opacity:0.4;stroke:#ffffff;stroke-linejoin:miter;stroke-width:2;"/>
   </g>
   <g id="patch_73">
    <path clip-path="url(#pfc3304ee93)" d="M 428.424461 367.104 
L 437.366392 367.104 
L 437.366392 323.886112 
L 428.424461 323.886112 
z
" style="fill:#e5699a;opacity:0.4;stroke:#ffffff;stroke-linejoin:miter;stroke-width:2;"/>
   </g>
   <g id="patch_74">
    <path clip-path="url(#pfc3304ee93)" d="M 437.366392 367.104 
L 446.308324 367.104 
L 446.308324 328.688099 
L 437.366392 328.688099 
z
" style="fill:#e5699a;opacity:0.4;stroke:#ffffff;stroke-linejoin:miter;stroke-width:2;"/>
   </g>
   <g id="patch_75">
    <path clip-path="url(#pfc3304ee93)" d="M 446.308324 367.104 
L 455.250255 367.104 
L 455.250255 323.886112 
L 446.308324 323.886112 
z
" style="fill:#e5699a;opacity:0.4;stroke:#ffffff;stroke-linejoin:miter;stroke-width:2;"/>
   </g>
   <g id="patch_76">
    <path clip-path="url(#pfc3304ee93)" d="M 455.250255 367.104 
L 464.192186 367.104 
L 464.192186 345.495056 
L 455.250255 345.495056 
z
" style="fill:#e5699a;opacity:0.4;stroke:#ffffff;stroke-linejoin:miter;stroke-width:2;"/>
   </g>
   <g id="patch_77">
    <path clip-path="url(#pfc3304ee93)" d="M 464.192186 367.104 
L 473.134118 367.104 
L 473.134118 359.901019 
L 464.192186 359.901019 
z
" style="fill:#e5699a;opacity:0.4;stroke:#ffffff;stroke-linejoin:miter;stroke-width:2;"/>
   </g>
   <g id="patch_78">
    <path clip-path="url(#pfc3304ee93)" d="M 473.134118 367.104 
L 482.076049 367.104 
L 482.076049 352.698037 
L 473.134118 352.698037 
z
" style="fill:#e5699a;opacity:0.4;stroke:#ffffff;stroke-linejoin:miter;stroke-width:2;"/>
   </g>
   <g id="patch_79">
    <path clip-path="url(#pfc3304ee93)" d="M 482.076049 367.104 
L 491.017981 367.104 
L 491.017981 345.495056 
L 482.076049 345.495056 
z
" style="fill:#e5699a;opacity:0.4;stroke:#ffffff;stroke-linejoin:miter;stroke-width:2;"/>
   </g>
   <g id="patch_80">
    <path clip-path="url(#pfc3304ee93)" d="M 491.017981 367.104 
L 499.959912 367.104 
L 499.959912 347.89605 
L 491.017981 347.89605 
z
" style="fill:#e5699a;opacity:0.4;stroke:#ffffff;stroke-linejoin:miter;stroke-width:2;"/>
   </g>
   <g id="patch_81">
    <path clip-path="url(#pfc3304ee93)" d="M 499.959912 367.104 
L 508.901843 367.104 
L 508.901843 364.703006 
L 499.959912 364.703006 
z
" style="fill:#e5699a;opacity:0.4;stroke:#ffffff;stroke-linejoin:miter;stroke-width:2;"/>
   </g>
   <g id="patch_82">
    <path clip-path="url(#pfc3304ee93)" d="M 508.901843 367.104 
L 517.843775 367.104 
L 517.843775 362.302012 
L 508.901843 362.302012 
z
" style="fill:#e5699a;opacity:0.4;stroke:#ffffff;stroke-linejoin:miter;stroke-width:2;"/>
   </g>
   <g id="line2d_17">
    <path clip-path="url(#pfc3304ee93)" d="M 97.319523 367.095902 
L 108.104061 367.021538 
L 115.293753 366.803898 
L 122.483445 366.276689 
L 126.078292 365.85273 
L 129.673138 365.311435 
L 133.267984 364.653795 
L 140.457676 363.000009 
L 144.052522 362.00209 
L 151.242214 359.668581 
L 162.026753 355.650546 
L 169.216445 352.810881 
L 172.811291 351.211786 
L 176.406137 349.364221 
L 180.000983 347.183037 
L 183.595829 344.629928 
L 187.190675 341.728365 
L 190.785521 338.555325 
L 197.975213 331.782421 
L 205.164906 324.743562 
L 208.759752 321.024999 
L 212.354598 317.046747 
L 215.949444 312.728825 
L 219.54429 308.045563 
L 223.139136 303.043289 
L 237.518521 282.401589 
L 244.708213 272.949145 
L 251.897905 263.640348 
L 255.492751 258.776632 
L 259.087597 253.683028 
L 266.277289 242.82302 
L 280.656674 220.071346 
L 284.25152 214.109442 
L 287.846366 207.763255 
L 291.441212 200.939234 
L 302.22575 179.322023 
L 305.820596 173.127905 
L 309.415443 168.285242 
L 313.010289 165.206341 
L 316.605135 164.144593 
L 320.199981 165.150962 
L 323.794827 168.058954 
L 327.389673 172.51772 
L 330.984519 178.079773 
L 334.579365 184.317862 
L 341.769057 197.736688 
L 348.95875 211.955479 
L 352.553596 219.451512 
L 359.743288 235.303323 
L 370.527826 259.689421 
L 374.122672 267.225622 
L 377.717518 274.227575 
L 381.312365 280.716686 
L 384.907211 286.818151 
L 392.096903 298.453461 
L 399.286595 309.632649 
L 402.881441 314.856889 
L 406.476287 319.680584 
L 410.071133 324.036591 
L 413.665979 327.923883 
L 417.260826 331.398568 
L 420.855672 334.547546 
L 424.450518 337.456104 
L 428.045364 340.181318 
L 431.64021 342.74129 
L 435.235056 345.124014 
L 438.829902 347.310107 
L 442.424748 349.295993 
L 446.019594 351.103895 
L 453.209287 354.336229 
L 456.804133 355.799379 
L 460.398979 357.131028 
L 463.993825 358.274722 
L 467.588671 359.175367 
L 471.183517 359.80803 
L 474.778363 360.195528 
L 481.968055 360.543739 
L 489.157747 360.977854 
L 492.752594 361.400657 
L 496.34744 361.975168 
L 514.32167 365.396466 
L 521.511362 366.235926 
L 528.701055 366.718726 
L 535.890747 366.961644 
L 546.675285 367.083791 
L 553.864977 367.097837 
L 553.864977 367.097837 
" style="fill:none;stroke:#71529e;stroke-linecap:round;stroke-width:3;"/>
   </g>
   <g id="line2d_18">
    <path clip-path="url(#pfc3304ee93)" d="M 105.499405 367.083526 
L 112.431463 366.960003 
L 115.897492 366.759093 
L 119.363521 366.368636 
L 122.82955 365.701699 
L 126.295579 364.694496 
L 129.761608 363.337919 
L 133.227638 361.684802 
L 136.693667 359.817606 
L 140.159696 357.787595 
L 143.625725 355.56329 
L 147.091754 353.033528 
L 150.557783 350.085742 
L 154.023812 346.724041 
L 160.95587 339.635662 
L 164.421899 336.464492 
L 171.353957 330.801922 
L 174.819986 327.520272 
L 178.286015 323.290733 
L 181.752044 317.789606 
L 185.218073 310.945064 
L 188.684102 302.970909 
L 199.08219 277.240487 
L 209.480277 253.601782 
L 212.946306 244.699038 
L 216.412335 234.569544 
L 219.878364 223.065782 
L 223.344393 210.293281 
L 233.74248 169.826346 
L 237.208509 157.881328 
L 240.674538 147.060845 
L 251.072625 116.543523 
L 261.470713 84.75025 
L 264.936742 76.805072 
L 268.402771 74.065068 
L 271.8688 80.471269 
L 275.334829 99.674514 
L 278.800858 132.925265 
L 282.266887 177.458535 
L 285.732916 226.803278 
L 289.198945 273.197304 
L 292.664974 310.657052 
L 296.131003 336.802454 
L 299.597032 352.638491 
L 303.063061 360.982638 
L 306.52909 364.813492 
L 309.995119 366.3476 
L 313.461148 366.883879 
L 316.927177 367.047616 
L 327.325265 367.103563 
L 355.053497 367.035236 
L 358.519526 366.856284 
L 361.985555 366.319367 
L 365.451584 364.916201 
L 368.917613 361.726058 
L 372.383642 355.427301 
L 375.849671 344.653792 
L 379.3157 328.74979 
L 382.781729 308.604496 
L 386.247758 286.926325 
L 389.713787 267.491733 
L 393.179817 253.635348 
L 396.645846 246.921053 
L 400.111875 246.827819 
L 403.577904 251.466983 
L 407.043933 258.64783 
L 413.975991 274.370167 
L 417.44202 281.503062 
L 424.374078 294.564494 
L 431.306136 307.471239 
L 434.772165 313.588371 
L 438.238194 319.045062 
L 441.704223 323.682942 
L 445.170252 327.611507 
L 455.56834 338.372705 
L 459.034369 342.18142 
L 462.500398 345.735878 
L 465.966427 348.58725 
L 469.432456 350.428049 
L 472.898485 351.232073 
L 476.364514 351.242697 
L 483.296572 350.490082 
L 486.762601 350.486862 
L 490.22863 351.066178 
L 493.694659 352.300172 
L 497.160688 354.109232 
L 507.558775 360.623538 
L 511.024804 362.353502 
L 514.490833 363.691913 
L 517.956862 364.693864 
L 521.422892 365.446702 
L 524.888921 366.018014 
L 528.35495 366.442278 
L 535.287008 366.921374 
L 542.219066 367.07143 
L 545.685095 367.088361 
L 545.685095 367.088361 
" style="fill:none;stroke:#e5699a;stroke-linecap:round;stroke-width:3;"/>
   </g>
   <g id="patch_83">
    <path d="M 74.49225 367.104 
L 74.49225 19.2 
" style="fill:none;stroke:#262626;stroke-linecap:square;stroke-linejoin:miter;stroke-width:2.5;"/>
   </g>
   <g id="patch_84">
    <path d="M 576.69225 367.104 
L 576.69225 19.2 
" style="fill:none;stroke:#262626;stroke-linecap:square;stroke-linejoin:miter;stroke-width:2.5;"/>
   </g>
   <g id="patch_85">
    <path d="M 74.49225 367.104 
L 576.69225 367.104 
" style="fill:none;stroke:#262626;stroke-linecap:square;stroke-linejoin:miter;stroke-width:2.5;"/>
   </g>
   <g id="patch_86">
    <path d="M 74.49225 19.2 
L 576.69225 19.2 
" style="fill:none;stroke:#262626;stroke-linecap:square;stroke-linejoin:miter;stroke-width:2.5;"/>
   </g>
  </g>
 </g>
 <defs>
  <clipPath id="pfc3304ee93">
   <rect height="347.904" width="502.2" x="74.49225" y="19.2"/>
  </clipPath>
 </defs>
</svg>
